<svg viewBox="0 0 600 1200" xmlns="http://www.w3.org/2000/svg">
  <defs>
    <linearGradient id="headerGrad" x1="0%" y1="0%" x2="100%" y2="0%">
      <stop offset="0%" style="stop-color:#a16207;stop-opacity:1" />
      <stop offset="100%" style="stop-color:#d97706;stop-opacity:1" />
    </linearGradient>
    <linearGradient id="roiGrad" x1="0%" y1="0%" x2="100%" y2="0%">
      <stop offset="0%" style="stop-color:#dc2626;stop-opacity:0.8" />
      <stop offset="100%" style="stop-color:#ef4444;stop-opacity:0.9" />
    </linearGradient>
    <linearGradient id="projectGrad" x1="0%" y1="0%" x2="100%" y2="0%">
      <stop offset="0%" style="stop-color:#1d4ed8;stop-opacity:0.8" />
      <stop offset="100%" style="stop-color:#3b82f6;stop-opacity:0.9" />
    </linearGradient>
    <linearGradient id="safetyGrad" x1="0%" y1="0%" x2="100%" y2="0%">
      <stop offset="0%" style="stop-color:#059669;stop-opacity:0.8" />
      <stop offset="100%" style="stop-color:#10b981;stop-opacity:0.9" />
    </linearGradient>
  </defs>
  
  <!-- Background -->
  <rect width="600" height="1200" fill="#fefefe"/>
  
  <!-- Header -->
  <rect x="0" y="0" width="600" height="90" fill="url(#headerGrad)"/>
  <text x="300" y="30" text-anchor="middle" fill="white" font-size="18" font-weight="bold">
    建設業向けn8n+AI自動化戦略提案書
  </text>
  <text x="300" y="50" text-anchor="middle" fill="white" font-size="14" opacity="0.9">
    スマート建設・安全性向上・工期短縮戦略
  </text>
  <text x="300" y="68" text-anchor="middle" fill="white" font-size="11" opacity="0.8">
    Construction Digital Transformation Strategy
  </text>
  <text x="300" y="82" text-anchor="middle" fill="white" font-size="10" opacity="0.7">
    🏗️ BIM統合・IoT活用による次世代建設業の実現
  </text>
  
  <!-- Executive Summary -->
  <rect x="40" y="110" width="520" height="90" fill="#fef3c7" stroke="#d97706" stroke-width="2" rx="12"/>
  <text x="60" y="135" fill="#92400e" font-size="16" font-weight="bold">📊 建設業界向けエグゼクティブサマリー</text>
  <text x="60" y="155" fill="#78350f" font-size="12">
    <tspan x="60" dy="0">• 工期短縮25%、労働生産性40%向上による大幅効率化</tspan>
    <tspan x="60" dy="15">• 安全事故70%削減、品質不良50%減による信頼性向上</tspan>
    <tspan x="60" dy="15">• 年間プロジェクトコスト6.8億円削減、利益率15%改善</tspan>
  </text>
  
  <!-- Construction ROI Analysis -->
  <rect x="40" y="220" width="520" height="180" fill="url(#roiGrad)" stroke="#ef4444" stroke-width="3" rx="15"/>
  <circle cx="80" cy="260" r="25" fill="#fff"/>
  <text x="80" y="267" text-anchor="middle" fill="#ef4444" font-size="12" font-weight="bold">ROI</text>
  <text x="120" y="255" fill="white" font-size="18" font-weight="bold">建設業界ROI分析</text>
  <text x="120" y="275" fill="white" font-size="14" opacity="0.9">22ヶ月での投資回収実現</text>
  
  <!-- ROI Breakdown -->
  <rect x="60" y="295" width="480" height="90" fill="#fef2f2" stroke="#f87171" stroke-width="1" rx="8"/>
  
  <!-- Year 1 -->
  <rect x="80" y="310" width="130" height="60" fill="#991b1b" rx="5"/>
  <text x="145" y="325" text-anchor="middle" fill="white" font-size="11" font-weight="bold">Year 1</text>
  <text x="145" y="340" text-anchor="middle" fill="white" font-size="10">投資：1.1億円</text>
  <text x="145" y="352" text-anchor="middle" fill="white" font-size="10">効果：3,200万円</text>
  <text x="145" y="364" text-anchor="middle" fill="white" font-size="9">BIM統合・進捗管理</text>
  
  <!-- Year 2 -->
  <rect x="235" y="310" width="130" height="60" fill="#dc2626" rx="5"/>
  <text x="300" y="325" text-anchor="middle" fill="white" font-size="11" font-weight="bold">Year 2</text>
  <text x="300" y="340" text-anchor="middle" fill="white" font-size="10">追加：4,500万円</text>
  <text x="300" y="352" text-anchor="middle" fill="white" font-size="10">効果：8,800万円</text>
  <text x="300" y="364" text-anchor="middle" fill="white" font-size="9">IoT・安全管理強化</text>
  
  <!-- Year 3 -->
  <rect x="390" y="310" width="130" height="60" fill="#ef4444" rx="5"/>
  <text x="455" y="325" text-anchor="middle" fill="white" font-size="11" font-weight="bold">Year 3</text>
  <text x="455" y="340" text-anchor="middle" fill="white" font-size="10">運用：1,800万円</text>
  <text x="455" y="352" text-anchor="middle" fill="white" font-size="10">効果：2.2億円</text>
  <text x="455" y="364" text-anchor="middle" fill="white" font-size="9">AI活用・自動化拡大</text>
  
  <!-- Project Management Optimization -->
  <rect x="40" y="420" width="520" height="200" fill="url(#projectGrad)" stroke="#3b82f6" stroke-width="3" rx="15"/>
  <circle cx="80" cy="460" r="25" fill="#fff"/>
  <text x="80" y="467" text-anchor="middle" fill="#3b82f6" font-size="11" font-weight="bold">PM</text>
  <text x="120" y="455" fill="white" font-size="18" font-weight="bold">プロジェクト管理高度化</text>
  <text x="120" y="475" fill="white" font-size="14" opacity="0.9">BIM統合・リアルタイム管理</text>
  
  <!-- Project Management Areas -->
  <rect x="60" y="495" width="480" height="110" fill="#eff6ff" stroke="#60a5fa" stroke-width="1" rx="8"/>
  
  <g transform="translate(80, 510)">
    <rect x="0" y="0" width="100" height="80" fill="#1e3a8a" rx="5"/>
    <text x="50" y="18" text-anchor="middle" fill="white" font-size="10" font-weight="bold">BIM統合</text>
    <text x="50" y="32" text-anchor="middle" fill="white" font-size="8">3Dモデル管理</text>
    <text x="50" y="44" text-anchor="middle" fill="white" font-size="8">設計変更連携</text>
    <text x="50" y="56" text-anchor="middle" fill="white" font-size="8">施工シミュレーション</text>
    <text x="50" y="68" text-anchor="middle" fill="white" font-size="8">干渉チェック</text>
  </g>
  
  <g transform="translate(200, 510)">
    <rect x="0" y="0" width="100" height="80" fill="#1d4ed8" rx="5"/>
    <text x="50" y="18" text-anchor="middle" fill="white" font-size="10" font-weight="bold">進捗管理</text>
    <text x="50" y="32" text-anchor="middle" fill="white" font-size="8">リアルタイム監視</text>
    <text x="50" y="44" text-anchor="middle" fill="white" font-size="8">作業実績記録</text>
    <text x="50" y="56" text-anchor="middle" fill="white" font-size="8">遅延予測・対策</text>
    <text x="50" y="68" text-anchor="middle" fill="white" font-size="8">工程最適化</text>
  </g>
  
  <g transform="translate(320, 510)">
    <rect x="0" y="0" width="100" height="80" fill="#2563eb" rx="5"/>
    <text x="50" y="18" text-anchor="middle" fill="white" font-size="10" font-weight="bold">資材管理</text>
    <text x="50" y="32" text-anchor="middle" fill="white" font-size="8">調達計画最適化</text>
    <text x="50" y="44" text-anchor="middle" fill="white" font-size="8">在庫管理</text>
    <text x="50" y="56" text-anchor="middle" fill="white" font-size="8">配送スケジュール</text>
    <text x="50" y="68" text-anchor="middle" fill="white" font-size="8">コスト管理</text>
  </g>
  
  <g transform="translate(440, 510)">
    <rect x="0" y="0" width="100" height="80" fill="#3b82f6" rx="5"/>
    <text x="50" y="18" text-anchor="middle" fill="white" font-size="10" font-weight="bold">品質管理</text>
    <text x="50" y="32" text-anchor="middle" fill="white" font-size="8">検査自動化</text>
    <text x="50" y="44" text-anchor="middle" fill="white" font-size="8">不具合検知</text>
    <text x="50" y="56" text-anchor="middle" fill="white" font-size="8">是正措置</text>
    <text x="50" y="68" text-anchor="middle" fill="white" font-size="8">品質保証</text>
  </g>
  
  <!-- Safety & Risk Management -->
  <rect x="40" y="640" width="520" height="180" fill="url(#safetyGrad)" stroke="#10b981" stroke-width="3" rx="15"/>
  <circle cx="80" cy="680" r="25" fill="#fff"/>
  <text x="80" y="687" text-anchor="middle" fill="#10b981" font-size="11" font-weight="bold">安全</text>
  <text x="120" y="675" fill="white" font-size="18" font-weight="bold">安全・リスク管理強化</text>
  <text x="120" y="695" fill="white" font-size="14" opacity="0.9">IoT・AI活用による予防安全</text>
  
  <!-- Safety Management Areas -->
  <rect x="60" y="715" width="480" height="90" fill="#ecfdf5" stroke="#10b981" stroke-width="1" rx="8"/>
  
  <g transform="translate(80, 730)">
    <circle cx="0" cy="0" r="6" fill="#10b981"/>
    <text x="15" y="5" fill="#065f46" font-size="12" font-weight="bold">危険予知</text>
    <text x="15" y="20" fill="#064e3b" font-size="10">AI画像解析・行動分析による危険検知</text>
  </g>
  
  <g transform="translate(280, 730)">
    <circle cx="0" cy="0" r="6" fill="#10b981"/>
    <text x="15" y="5" fill="#065f46" font-size="12" font-weight="bold">環境監視</text>
    <text x="15" y="20" fill="#064e3b" font-size="10">温度・湿度・騒音・粉塵の自動監視</text>
  </g>
  
  <g transform="translate(80, 770)">
    <circle cx="0" cy="0" r="6" fill="#10b981"/>
    <text x="15" y="5" fill="#065f46" font-size="12" font-weight="bold">作業員管理</text>
    <text x="15" y="20" fill="#064e3b" font-size="10">位置情報・健康状態・作業時間管理</text>
  </g>
  
  <g transform="translate(280, 770)">
    <circle cx="0" cy="0" r="6" fill="#10b981"/>
    <text x="15" y="5" fill="#065f46" font-size="12" font-weight="bold">事故防止</text>
    <text x="15" y="20" fill="#064e3b" font-size="10">予防的安全対策・緊急時対応自動化</text>
  </g>
  
  <!-- Construction KPIs -->
  <rect x="40" y="840" width="520" height="140" fill="#f8fafc" stroke="#64748b" stroke-width="2" rx="15"/>
  <text x="300" y="870" text-anchor="middle" fill="#334155" font-size="16" font-weight="bold">📈 建設業界特化KPI</text>
  
  <g transform="translate(60, 890)">
    <rect x="0" y="0" width="120" height="70" fill="#1e293b" stroke="#475569" stroke-width="1" rx="5"/>
    <text x="60" y="18" text-anchor="middle" fill="#f1f5f9" font-size="11" font-weight="bold">工期短縮</text>
    <text x="60" y="35" text-anchor="middle" fill="#e2e8f0" font-size="16" font-weight="bold">25%</text>
    <text x="60" y="50" text-anchor="middle" fill="#cbd5e1" font-size="9">短縮</text>
    <text x="60" y="65" text-anchor="middle" fill="#94a3b8" font-size="8">進捗最適化</text>
  </g>
  
  <g transform="translate(200, 890)">
    <rect x="0" y="0" width="120" height="70" fill="#1e293b" stroke="#475569" stroke-width="1" rx="5"/>
    <text x="60" y="18" text-anchor="middle" fill="#f1f5f9" font-size="11" font-weight="bold">安全事故</text>
    <text x="60" y="35" text-anchor="middle" fill="#e2e8f0" font-size="16" font-weight="bold">70%</text>
    <text x="60" y="50" text-anchor="middle" fill="#cbd5e1" font-size="9">削減</text>
    <text x="60" y="65" text-anchor="middle" fill="#94a3b8" font-size="8">IoT監視</text>
  </g>
  
  <g transform="translate(340, 890)">
    <rect x="0" y="0" width="120" height="70" fill="#1e293b" stroke="#475569" stroke-width="1" rx="5"/>
    <text x="60" y="18" text-anchor="middle" fill="#f1f5f9" font-size="11" font-weight="bold">生産性</text>
    <text x="60" y="35" text-anchor="middle" fill="#e2e8f0" font-size="16" font-weight="bold">40%</text>
    <text x="60" y="50" text-anchor="middle" fill="#cbd5e1" font-size="9">向上</text>
    <text x="60" y="65" text-anchor="middle" fill="#94a3b8" font-size="8">自動化・効率化</text>
  </g>
  
  <g transform="translate(480, 890)">
    <rect x="0" y="0" width="80" height="70" fill="#1e293b" stroke="#475569" stroke-width="1" rx="5"/>
    <text x="40" y="18" text-anchor="middle" fill="#f1f5f9" font-size="11" font-weight="bold">品質向上</text>
    <text x="40" y="35" text-anchor="middle" fill="#e2e8f0" font-size="16" font-weight="bold">50%</text>
    <text x="40" y="50" text-anchor="middle" fill="#cbd5e1" font-size="9">不良削減</text>
    <text x="40" y="65" text-anchor="middle" fill="#94a3b8" font-size="8">検査自動化</text>
  </g>
  
  <!-- Implementation Priority -->
  <rect x="40" y="1000" width="520" height="100" fill="#164e63" stroke="#0891b2" stroke-width="2" rx="15"/>
  <text x="300" y="1030" text-anchor="middle" fill="white" font-size="16" font-weight="bold">🎯 建設業界実装優先順位</text>
  <text x="60" y="1055" fill="white" font-size="12">
    <tspan x="60" dy="0">Phase 1: BIM統合・進捗管理（可視化・効率化）</tspan>
    <tspan x="60" dy="18">Phase 2: 安全管理・IoT監視（事故防止・リスク軽減）</tspan>
    <tspan x="60" dy="18">Phase 3: AI予測・自動化拡大（スマート建設実現）</tspan>
  </text>
  
  <!-- Call to Action -->
  <rect x="60" y="1120" width="480" height="60" fill="#a16207" stroke="#d97706" stroke-width="2" rx="15"/>
  <text x="300" y="1145" text-anchor="middle" fill="white" font-size="14" font-weight="bold">🏗️ 建設DX推進の意義</text>
  <text x="300" y="1165" text-anchor="middle" fill="white" font-size="12">
    労働力不足・安全性向上・品質確保の課題解決
  </text>
  
  <!-- Footer -->
  <text x="300" y="1190" text-anchor="middle" fill="#6b7280" font-size="10">
    Construction Industry Automation Strategy - Customized Framework
  </text>
</svg>