<svg viewBox="0 0 600 1200" xmlns="http://www.w3.org/2000/svg">
  <defs>
    <linearGradient id="headerGrad" x1="0%" y1="0%" x2="100%" y2="0%">
      <stop offset="0%" style="stop-color:#7c2d12;stop-opacity:1" />
      <stop offset="100%" style="stop-color:#ea580c;stop-opacity:1" />
    </linearGradient>
    <linearGradient id="roiGrad" x1="0%" y1="0%" x2="100%" y2="0%">
      <stop offset="0%" style="stop-color:#991b1b;stop-opacity:0.8" />
      <stop offset="100%" style="stop-color:#dc2626;stop-opacity:0.9" />
    </linearGradient>
    <linearGradient id="fraudGrad" x1="0%" y1="0%" x2="100%" y2="0%">
      <stop offset="0%" style="stop-color:#1d4ed8;stop-opacity:0.8" />
      <stop offset="100%" style="stop-color:#3b82f6;stop-opacity:0.9" />
    </linearGradient>
    <linearGradient id="creditGrad" x1="0%" y1="0%" x2="100%" y2="0%">
      <stop offset="0%" style="stop-color:#059669;stop-opacity:0.8" />
      <stop offset="100%" style="stop-color:#10b981;stop-opacity:0.9" />
    </linearGradient>
    <linearGradient id="customerGrad" x1="0%" y1="0%" x2="100%" y2="0%">
      <stop offset="0%" style="stop-color:#7c3aed;stop-opacity:0.8" />
      <stop offset="100%" style="stop-color:#8b5cf6;stop-opacity:0.9" />
    </linearGradient>
  </defs>
  
  <!-- Background -->
  <rect width="600" height="1200" fill="#fefefe"/>
  
  <!-- Header -->
  <rect x="0" y="0" width="600" height="90" fill="url(#headerGrad)"/>
  <text x="300" y="28" text-anchor="middle" fill="white" font-size="17" font-weight="bold">
    クレジットカード業界向けn8n+AI自動化戦略提案書
  </text>
  <text x="300" y="48" text-anchor="middle" fill="white" font-size="13" opacity="0.9">
    リアルタイム不正検知・与信最適化・顧客体験革新戦略
  </text>
  <text x="300" y="65" text-anchor="middle" fill="white" font-size="10" opacity="0.8">
    Credit Card Industry Digital Transformation Strategy
  </text>
  <text x="300" y="80" text-anchor="middle" fill="white" font-size="9" opacity="0.7">
    💳 24/7リアルタイム処理・不正対策・パーソナライゼーション実現
  </text>
  
  <!-- Executive Summary -->
  <rect x="40" y="110" width="520" height="90" fill="#fed7aa" stroke="#fb923c" stroke-width="2" rx="12"/>
  <text x="60" y="135" fill="#9a3412" font-size="16" font-weight="bold">📊 クレジットカード業界向けエグゼクティブサマリー</text>
  <text x="60" y="155" fill="#7c2d12" font-size="12">
    <tspan x="60" dy="0">• 不正検知精度95%達成、不正損失70%削減による収益保護</tspan>
    <tspan x="60" dy="15">• 与信承認率15%向上、審査時間90%短縮による顧客満足度向上</tspan>
    <tspan x="60" dy="15">• 年間運用コスト4.2億円削減、カード利用額25%増加</tspan>
  </text>
  
  <!-- Credit Card ROI Analysis -->
  <rect x="40" y="220" width="520" height="180" fill="url(#roiGrad)" stroke="#dc2626" stroke-width="3" rx="15"/>
  <circle cx="80" cy="260" r="25" fill="#fff"/>
  <text x="80" y="267" text-anchor="middle" fill="#dc2626" font-size="12" font-weight="bold">ROI</text>
  <text x="120" y="255" fill="white" font-size="18" font-weight="bold">クレジットカード業界ROI分析</text>
  <text x="120" y="275" fill="white" font-size="14" opacity="0.9">12ヶ月での投資回収実現</text>
  
  <!-- ROI Breakdown -->
  <rect x="60" y="295" width="480" height="90" fill="#fef2f2" stroke="#f87171" stroke-width="1" rx="8"/>
  
  <!-- Year 1 -->
  <rect x="80" y="310" width="130" height="60" fill="#7f1d1d" rx="5"/>
  <text x="145" y="325" text-anchor="middle" fill="white" font-size="11" font-weight="bold">Year 1</text>
  <text x="145" y="340" text-anchor="middle" fill="white" font-size="10">投資：9,200万円</text>
  <text x="145" y="352" text-anchor="middle" fill="white" font-size="10">効果：8,500万円</text>
  <text x="145" y="364" text-anchor="middle" fill="white" font-size="9">不正検知・与信自動化</text>
  
  <!-- Year 2 -->
  <rect x="235" y="310" width="130" height="60" fill="#991b1b" rx="5"/>
  <text x="300" y="325" text-anchor="middle" fill="white" font-size="11" font-weight="bold">Year 2</text>
  <text x="300" y="340" text-anchor="middle" fill="white" font-size="10">追加：4,800万円</text>
  <text x="300" y="352" text-anchor="middle" fill="white" font-size="10">効果：1.8億円</text>
  <text x="300" y="364" text-anchor="middle" fill="white" font-size="9">顧客体験・営業最適化</text>
  
  <!-- Year 3 -->
  <rect x="390" y="310" width="130" height="60" fill="#dc2626" rx="5"/>
  <text x="455" y="325" text-anchor="middle" fill="white" font-size="11" font-weight="bold">Year 3</text>
  <text x="455" y="340" text-anchor="middle" fill="white" font-size="10">運用：1,500万円</text>
  <text x="455" y="352" text-anchor="middle" fill="white" font-size="10">効果：3.2億円</text>
  <text x="455" y="364" text-anchor="middle" fill="white" font-size="9">AI高度化・新サービス</text>
  
  <!-- Fraud Detection & Security -->
  <rect x="40" y="420" width="520" height="160" fill="url(#fraudGrad)" stroke="#3b82f6" stroke-width="3" rx="15"/>
  <circle cx="80" cy="460" r="25" fill="#fff"/>
  <text x="80" y="467" text-anchor="middle" fill="#3b82f6" font-size="11" font-weight="bold">不正</text>
  <text x="120" y="455" fill="white" font-size="18" font-weight="bold">リアルタイム不正検知システム</text>
  <text x="120" y="475" fill="white" font-size="14" opacity="0.9">AI機械学習・行動分析・瞬時判定</text>
  
  <!-- Fraud Detection Areas -->
  <rect x="60" y="495" width="480" height="70" fill="#eff6ff" stroke="#60a5fa" stroke-width="1" rx="8"/>
  
  <g transform="translate(80, 510)">
    <rect x="0" y="0" width="90" height="40" fill="#1e3a8a" rx="3"/>
    <text x="45" y="15" text-anchor="middle" fill="white" font-size="9" font-weight="bold">取引パターン分析</text>
    <text x="45" y="28" text-anchor="middle" fill="white" font-size="7">異常検知・リスクスコア</text>
    <text x="45" y="37" text-anchor="middle" fill="white" font-size="7">リアルタイム判定</text>
  </g>
  
  <g transform="translate(190, 510)">
    <rect x="0" y="0" width="90" height="40" fill="#1d4ed8" rx="3"/>
    <text x="45" y="15" text-anchor="middle" fill="white" font-size="9" font-weight="bold">デバイス認証</text>
    <text x="45" y="28" text-anchor="middle" fill="white" font-size="7">端末フィンガープリント</text>
    <text x="45" y="37" text-anchor="middle" fill="white" font-size="7">生体認証連携</text>
  </g>
  
  <g transform="translate(300, 510)">
    <rect x="0" y="0" width="90" height="40" fill="#2563eb" rx="3"/>
    <text x="45" y="15" text-anchor="middle" fill="white" font-size="9" font-weight="bold">地理的分析</text>
    <text x="45" y="28" text-anchor="middle" fill="white" font-size="7">位置情報・移動パターン</text>
    <text x="45" y="37" text-anchor="middle" fill="white" font-size="7">不自然な利用検知</text>
  </g>
  
  <g transform="translate(410, 510)">
    <rect x="0" y="0" width="90" height="40" fill="#3b82f6" rx="3"/>
    <text x="45" y="15" text-anchor="middle" fill="white" font-size="9" font-weight="bold">加盟店分析</text>
    <text x="45" y="28" text-anchor="middle" fill="white" font-size="7">高リスク店舗特定</text>
    <text x="45" y="37" text-anchor="middle" fill="white" font-size="7">業種別リスク評価</text>
  </g>
  
  <!-- Credit Management -->
  <rect x="40" y="600" width="520" height="140" fill="url(#creditGrad)" stroke="#10b981" stroke-width="3" rx="15"/>
  <circle cx="80" cy="640" r="25" fill="#fff"/>
  <text x="80" y="647" text-anchor="middle" fill="#10b981" font-size="11" font-weight="bold">与信</text>
  <text x="120" y="635" fill="white" font-size="18" font-weight="bold">動的与信管理・審査最適化</text>
  <text x="120" y="655" fill="white" font-size="14" opacity="0.9">AI与信モデル・リアルタイム調整</text>
  
  <!-- Credit Management Areas -->
  <rect x="60" y="675" width="480" height="50" fill="#ecfdf5" stroke="#10b981" stroke-width="1" rx="8"/>
  
  <g transform="translate(80, 685)">
    <circle cx="0" cy="0" r="4" fill="#10b981"/>
    <text x="10" y="4" fill="#065f46" font-size="11" font-weight="bold">与信審査自動化</text>
    <text x="10" y="16" fill="#064e3b" font-size="9">AI審査・瞬時判定・承認率最適化</text>
  </g>
  
  <g transform="translate(280, 685)">
    <circle cx="0" cy="0" r="4" fill="#10b981"/>
    <text x="10" y="4" fill="#065f46" font-size="11" font-weight="bold">限度額動的調整</text>
    <text x="10" y="16" fill="#064e3b" font-size="9">利用実績・信用度・リスク評価連動</text>
  </g>
  
  <!-- Customer Experience Enhancement -->
  <rect x="40" y="760" width="520" height="140" fill="url(#customerGrad)" stroke="#8b5cf6" stroke-width="3" rx="15"/>
  <circle cx="80" cy="800" r="25" fill="#fff"/>
  <text x="80" y="807" text-anchor="middle" fill="#8b5cf6" font-size="11" font-weight="bold">CX</text>
  <text x="120" y="795" fill="white" font-size="18" font-weight="bold">顧客体験・パーソナライゼーション</text>
  <text x="120" y="815" fill="white" font-size="14" opacity="0.9">AI推奨・個別最適化・自動サポート</text>
  
  <!-- Customer Experience Areas -->
  <rect x="60" y="835" width="480" height="50" fill="#f5f3ff" stroke="#a78bfa" stroke-width="1" rx="8"/>
  
  <g transform="translate(80, 845)">
    <circle cx="0" cy="0" r="4" fill="#8b5cf6"/>
    <text x="10" y="4" fill="#581c87" font-size="11" font-weight="bold">パーソナル推奨</text>
    <text x="10" y="16" fill="#6b21a8" font-size="9">利用パターン分析・最適サービス提案</text>
  </g>
  
  <g transform="translate(280, 845)">
    <circle cx="0" cy="0" r="4" fill="#8b5cf6"/>
    <text x="10" y="4" fill="#581c87" font-size="11" font-weight="bold">チャットボット</text>
    <text x="10" y="16" fill="#6b21a8" font-size="9">24/7自動応答・問題解決・エスカレーション</text>
  </g>
  
  <!-- Credit Card KPIs -->
  <rect x="40" y="920" width="520" height="140" fill="#f8fafc" stroke="#64748b" stroke-width="2" rx="15"/>
  <text x="300" y="950" text-anchor="middle" fill="#334155" font-size="16" font-weight="bold">📈 クレジットカード業界特化KPI</text>
  
  <g transform="translate(60, 970)">
    <rect x="0" y="0" width="120" height="70" fill="#1e293b" stroke="#475569" stroke-width="1" rx="5"/>
    <text x="60" y="18" text-anchor="middle" fill="#f1f5f9" font-size="11" font-weight="bold">不正検知率</text>
    <text x="60" y="35" text-anchor="middle" fill="#e2e8f0" font-size="16" font-weight="bold">95%</text>
    <text x="60" y="50" text-anchor="middle" fill="#cbd5e1" font-size="9">精度達成</text>
    <text x="60" y="65" text-anchor="middle" fill="#94a3b8" font-size="8">誤検知5%以下</text>
  </g>
  
  <g transform="translate(200, 970)">
    <rect x="0" y="0" width="120" height="70" fill="#1e293b" stroke="#475569" stroke-width="1" rx="5"/>
    <text x="60" y="18" text-anchor="middle" fill="#f1f5f9" font-size="11" font-weight="bold">承認率向上</text>
    <text x="60" y="35" text-anchor="middle" fill="#e2e8f0" font-size="16" font-weight="bold">15%</text>
    <text x="60" y="50" text-anchor="middle" fill="#cbd5e1" font-size="9">向上</text>
    <text x="60" y="65" text-anchor="middle" fill="#94a3b8" font-size="8">与信精度向上</text>
  </g>
  
  <g transform="translate(340, 970)">
    <rect x="0" y="0" width="120" height="70" fill="#1e293b" stroke="#475569" stroke-width="1" rx="5"/>
    <text x="60" y="18" text-anchor="middle" fill="#f1f5f9" font-size="11" font-weight="bold">処理時間</text>
    <text x="60" y="35" text-anchor="middle" fill="#e2e8f0" font-size="16" font-weight="bold">90%</text>
    <text x="60" y="50" text-anchor="middle" fill="#cbd5e1" font-size="9">短縮</text>
    <text x="60" y="65" text-anchor="middle" fill="#94a3b8" font-size="8">3秒以内判定</text>
  </g>
  
  <g transform="translate(480, 970)">
    <rect x="0" y="0" width="80" height="70" fill="#1e293b" stroke="#475569" stroke-width="1" rx="5"/>
    <text x="40" y="18" text-anchor="middle" fill="#f1f5f9" font-size="11" font-weight="bold">利用増加</text>
    <text x="40" y="35" text-anchor="middle" fill="#e2e8f0" font-size="16" font-weight="bold">25%</text>
    <text x="40" y="50" text-anchor="middle" fill="#cbd5e1" font-size="9">増加</text>
    <text x="40" y="65" text-anchor="middle" fill="#94a3b8" font-size="8">カード利用額</text>
  </g>
  
  <!-- Implementation Priority -->
  <rect x="40" y="1080" width="520" height="80" fill="#164e63" stroke="#0891b2" stroke-width="2" rx="15"/>
  <text x="300" y="1110" text-anchor="middle" fill="white" font-size="16" font-weight="bold">🎯 クレジットカード業界実装優先順位</text>
  <text x="60" y="1135" fill="white" font-size="12">
    <tspan x="60" dy="0">Phase 1: 不正検知・与信審査AI（損失防止・収益確保）</tspan>
    <tspan x="60" dy="18">Phase 2: 顧客体験・パーソナライゼーション（利用促進）</tspan>
  </text>
  
  <!-- Call to Action -->
  <rect x="60" y="1180" width="480" height="15" fill="#7c2d12" rx="7"/>
  <text x="300" y="1192" text-anchor="middle" fill="white" font-size="11" font-weight="bold">
    💳 決済インフラ革新・競争優位確立の重要な時期
  </text>
  
  <!-- Footer -->
  <text x="300" y="1190" text-anchor="middle" fill="#6b7280" font-size="10">
    Credit Card Industry Automation Strategy - Specialized Framework
  </text>
</svg>