<svg viewBox="0 0 600 1200" xmlns="http://www.w3.org/2000/svg">
  <defs>
    <linearGradient id="headerGrad" x1="0%" y1="0%" x2="100%" y2="0%">
      <stop offset="0%" style="stop-color:#1d4ed8;stop-opacity:1" />
      <stop offset="100%" style="stop-color:#3b82f6;stop-opacity:1" />
    </linearGradient>
    <linearGradient id="roiGrad" x1="0%" y1="0%" x2="100%" y2="0%">
      <stop offset="0%" style="stop-color:#7c3aed;stop-opacity:0.8" />
      <stop offset="100%" style="stop-color:#8b5cf6;stop-opacity:0.9" />
    </linearGradient>
    <linearGradient id="learningGrad" x1="0%" y1="0%" x2="100%" y2="0%">
      <stop offset="0%" style="stop-color:#059669;stop-opacity:0.8" />
      <stop offset="100%" style="stop-color:#10b981;stop-opacity:0.9" />
    </linearGradient>
    <linearGradient id="adminGrad" x1="0%" y1="0%" x2="100%" y2="0%">
      <stop offset="0%" style="stop-color:#ea580c;stop-opacity:0.8" />
      <stop offset="100%" style="stop-color:#fb923c;stop-opacity:0.9" />
    </linearGradient>
  </defs>
  
  <!-- Background -->
  <rect width="600" height="1200" fill="#fefefe"/>
  
  <!-- Header -->
  <rect x="0" y="0" width="600" height="90" fill="url(#headerGrad)"/>
  <text x="300" y="30" text-anchor="middle" fill="white" font-size="18" font-weight="bold">
    教育業向けn8n+AI自動化戦略提案書
  </text>
  <text x="300" y="50" text-anchor="middle" fill="white" font-size="14" opacity="0.9">
    個別最適化学習・教育効果最大化・業務効率化戦略
  </text>
  <text x="300" y="68" text-anchor="middle" fill="white" font-size="11" opacity="0.8">
    Education Digital Transformation Strategy
  </text>
  <text x="300" y="82" text-anchor="middle" fill="white" font-size="10" opacity="0.7">
    🎓 EdTech統合・学習データ活用による次世代教育の実現
  </text>
  
  <!-- Executive Summary -->
  <rect x="40" y="110" width="520" height="90" fill="#eff6ff" stroke="#3b82f6" stroke-width="2" rx="12"/>
  <text x="60" y="135" fill="#1e40af" font-size="16" font-weight="bold">📊 教育業界向けエグゼクティブサマリー</text>
  <text x="60" y="155" fill="#1e3a8a" font-size="12">
    <tspan x="60" dy="0">• 学習効果30%向上、個別指導時間50%拡大による教育品質革新</tspan>
    <tspan x="60" dy="15">• 教員業務負担40%軽減、事務処理時間60%削減による働き方改革</tspan>
    <tspan x="60" dy="15">• 年間運営コスト1.8億円削減、学習者満足度45%向上</tspan>
  </text>
  
  <!-- Education ROI Analysis -->
  <rect x="40" y="220" width="520" height="180" fill="url(#roiGrad)" stroke="#8b5cf6" stroke-width="3" rx="15"/>
  <circle cx="80" cy="260" r="25" fill="#fff"/>
  <text x="80" y="267" text-anchor="middle" fill="#8b5cf6" font-size="12" font-weight="bold">ROI</text>
  <text x="120" y="255" fill="white" font-size="18" font-weight="bold">教育業界ROI分析</text>
  <text x="120" y="275" fill="white" font-size="14" opacity="0.9">24ヶ月での投資回収実現</text>
  
  <!-- ROI Breakdown -->
  <rect x="60" y="295" width="480" height="90" fill="#f5f3ff" stroke="#a78bfa" stroke-width="1" rx="8"/>
  
  <!-- Year 1 -->
  <rect x="80" y="310" width="130" height="60" fill="#581c87" rx="5"/>
  <text x="145" y="325" text-anchor="middle" fill="white" font-size="11" font-weight="bold">Year 1</text>
  <text x="145" y="340" text-anchor="middle" fill="white" font-size="10">投資：5,500万円</text>
  <text x="145" y="352" text-anchor="middle" fill="white" font-size="10">効果：1,200万円</text>
  <text x="145" y="364" text-anchor="middle" fill="white" font-size="9">LMS統合・成績管理</text>
  
  <!-- Year 2 -->
  <rect x="235" y="310" width="130" height="60" fill="#7c3aed" rx="5"/>
  <text x="300" y="325" text-anchor="middle" fill="white" font-size="11" font-weight="bold">Year 2</text>
  <text x="300" y="340" text-anchor="middle" fill="white" font-size="10">追加：2,800万円</text>
  <text x="300" y="352" text-anchor="middle" fill="white" font-size="10">効果：4,500万円</text>
  <text x="300" y="364" text-anchor="middle" fill="white" font-size="9">AI学習分析・個別化</text>
  
  <!-- Year 3 -->
  <rect x="390" y="310" width="130" height="60" fill="#8b5cf6" rx="5"/>
  <text x="455" y="325" text-anchor="middle" fill="white" font-size="11" font-weight="bold">Year 3</text>
  <text x="455" y="340" text-anchor="middle" fill="white" font-size="10">運用：800万円</text>
  <text x="455" y="352" text-anchor="middle" fill="white" font-size="10">効果：8,200万円</text>
  <text x="455" y="364" text-anchor="middle" fill="white" font-size="9">全教科AI支援拡大</text>
  
  <!-- Personalized Learning -->
  <rect x="40" y="420" width="520" height="200" fill="url(#learningGrad)" stroke="#10b981" stroke-width="3" rx="15"/>
  <circle cx="80" cy="460" r="25" fill="#fff"/>
  <text x="80" y="467" text-anchor="middle" fill="#10b981" font-size="11" font-weight="bold">学習</text>
  <text x="120" y="455" fill="white" font-size="18" font-weight="bold">個別最適化学習システム</text>
  <text x="120" y="475" fill="white" font-size="14" opacity="0.9">AI学習分析・アダプティブラーニング</text>
  
  <!-- Learning Optimization Areas -->
  <rect x="60" y="495" width="480" height="110" fill="#ecfdf5" stroke="#10b981" stroke-width="1" rx="8"/>
  
  <g transform="translate(80, 510)">
    <rect x="0" y="0" width="100" height="80" fill="#065f46" rx="5"/>
    <text x="50" y="18" text-anchor="middle" fill="white" font-size="10" font-weight="bold">学習分析</text>
    <text x="50" y="32" text-anchor="middle" fill="white" font-size="8">学習行動分析</text>
    <text x="50" y="44" text-anchor="middle" fill="white" font-size="8">理解度評価</text>
    <text x="50" y="56" text-anchor="middle" fill="white" font-size="8">つまずき検知</text>
    <text x="50" y="68" text-anchor="middle" fill="white" font-size="8">改善提案</text>
  </g>
  
  <g transform="translate(200, 510)">
    <rect x="0" y="0" width="100" height="80" fill="#059669" rx="5"/>
    <text x="50" y="18" text-anchor="middle" fill="white" font-size="10" font-weight="bold">個別化学習</text>
    <text x="50" y="32" text-anchor="middle" fill="white" font-size="8">学習パス調整</text>
    <text x="50" y="44" text-anchor="middle" fill="white" font-size="8">難易度最適化</text>
    <text x="50" y="56" text-anchor="middle" fill="white" font-size="8">補習・発展</text>
    <text x="50" y="68" text-anchor="middle" fill="white" font-size="8">進度管理</text>
  </g>
  
  <g transform="translate(320, 510)">
    <rect x="0" y="0" width="100" height="80" fill="#10b981" rx="5"/>
    <text x="50" y="18" text-anchor="middle" fill="white" font-size="10" font-weight="bold">学習支援</text>
    <text x="50" y="32" text-anchor="middle" fill="white" font-size="8">質問応答AI</text>
    <text x="50" y="44" text-anchor="middle" fill="white" font-size="8">学習リソース</text>
    <text x="50" y="56" text-anchor="middle" fill="white" font-size="8">推薦システム</text>
    <text x="50" y="68" text-anchor="middle" fill="white" font-size="8">学習計画</text>
  </g>
  
  <g transform="translate(440, 510)">
    <rect x="0" y="0" width="100" height="80" fill="#22c55e" rx="5"/>
    <text x="50" y="18" text-anchor="middle" fill="white" font-size="10" font-weight="bold">評価最適化</text>
    <text x="50" y="32" text-anchor="middle" fill="white" font-size="8">自動採点</text>
    <text x="50" y="44" text-anchor="middle" fill="white" font-size="8">フィードバック</text>
    <text x="50" y="56" text-anchor="middle" fill="white" font-size="8">成長記録</text>
    <text x="50" y="68" text-anchor="middle" fill="white" font-size="8">ポートフォリオ</text>
  </g>
  
  <!-- Administrative Automation -->
  <rect x="40" y="640" width="520" height="180" fill="url(#adminGrad)" stroke="#fb923c" stroke-width="3" rx="15"/>
  <circle cx="80" cy="680" r="25" fill="#fff"/>
  <text x="80" y="687" text-anchor="middle" fill="#fb923c" font-size="11" font-weight="bold">管理</text>
  <text x="120" y="675" fill="white" font-size="18" font-weight="bold">教育管理業務自動化</text>
  <text x="120" y="695" fill="white" font-size="14" opacity="0.9">教員負担軽減・効率化</text>
  
  <!-- Administrative Areas -->
  <rect x="60" y="715" width="480" height="90" fill="#fed7aa" stroke="#fb923c" stroke-width="1" rx="8"/>
  
  <g transform="translate(80, 730)">
    <circle cx="0" cy="0" r="6" fill="#fb923c"/>
    <text x="15" y="5" fill="#9a3412" font-size="12" font-weight="bold">成績管理</text>
    <text x="15" y="20" fill="#7c2d12" font-size="10">自動集計・分析・レポート生成</text>
  </g>
  
  <g transform="translate(280, 730)">
    <circle cx="0" cy="0" r="6" fill="#fb923c"/>
    <text x="15" y="5" fill="#9a3412" font-size="12" font-weight="bold">出席管理</text>
    <text x="15" y="20" fill="#7c2d12" font-size="10">IC・生体認証・自動記録</text>
  </g>
  
  <g transform="translate(80, 770)">
    <circle cx="0" cy="0" r="6" fill="#fb923c"/>
    <text x="15" y="5" fill="#9a3412" font-size="12" font-weight="bold">保護者連絡</text>
    <text x="15" y="20" fill="#7c2d12" font-size="10">自動通知・面談調整・情報共有</text>
  </g>
  
  <g transform="translate(280, 770)">
    <circle cx="0" cy="0" r="6" fill="#fb923c"/>
    <text x="15" y="5" fill="#9a3412" font-size="12" font-weight="bold">教材管理</text>
    <text x="15" y="20" fill="#7c2d12" font-size="10">デジタル教材・配布・更新管理</text>
  </g>
  
  <!-- Education KPIs -->
  <rect x="40" y="840" width="520" height="140" fill="#f8fafc" stroke="#64748b" stroke-width="2" rx="15"/>
  <text x="300" y="870" text-anchor="middle" fill="#334155" font-size="16" font-weight="bold">📈 教育業界特化KPI</text>
  
  <g transform="translate(60, 890)">
    <rect x="0" y="0" width="120" height="70" fill="#1e293b" stroke="#475569" stroke-width="1" rx="5"/>
    <text x="60" y="18" text-anchor="middle" fill="#f1f5f9" font-size="11" font-weight="bold">学習効果</text>
    <text x="60" y="35" text-anchor="middle" fill="#e2e8f0" font-size="16" font-weight="bold">30%</text>
    <text x="60" y="50" text-anchor="middle" fill="#cbd5e1" font-size="9">向上</text>
    <text x="60" y="65" text-anchor="middle" fill="#94a3b8" font-size="8">成績・理解度</text>
  </g>
  
  <g transform="translate(200, 890)">
    <rect x="0" y="0" width="120" height="70" fill="#1e293b" stroke="#475569" stroke-width="1" rx="5"/>
    <text x="60" y="18" text-anchor="middle" fill="#f1f5f9" font-size="11" font-weight="bold">業務負担</text>
    <text x="60" y="35" text-anchor="middle" fill="#e2e8f0" font-size="16" font-weight="bold">40%</text>
    <text x="60" y="50" text-anchor="middle" fill="#cbd5e1" font-size="9">軽減</text>
    <text x="60" y="65" text-anchor="middle" fill="#94a3b8" font-size="8">教員業務</text>
  </g>
  
  <g transform="translate(340, 890)">
    <rect x="0" y="0" width="120" height="70" fill="#1e293b" stroke="#475569" stroke-width="1" rx="5"/>
    <text x="60" y="18" text-anchor="middle" fill="#f1f5f9" font-size="11" font-weight="bold">個別指導</text>
    <text x="60" y="35" text-anchor="middle" fill="#e2e8f0" font-size="16" font-weight="bold">50%</text>
    <text x="60" y="50" text-anchor="middle" fill="#cbd5e1" font-size="9">拡大</text>
    <text x="60" y="65" text-anchor="middle" fill="#94a3b8" font-size="8">時間確保</text>
  </g>
  
  <g transform="translate(480, 890)">
    <rect x="0" y="0" width="80" height="70" fill="#1e293b" stroke="#475569" stroke-width="1" rx="5"/>
    <text x="40" y="18" text-anchor="middle" fill="#f1f5f9" font-size="11" font-weight="bold">満足度</text>
    <text x="40" y="35" text-anchor="middle" fill="#e2e8f0" font-size="16" font-weight="bold">45%</text>
    <text x="40" y="50" text-anchor="middle" fill="#cbd5e1" font-size="9">向上</text>
    <text x="40" y="65" text-anchor="middle" fill="#94a3b8" font-size="8">学習者</text>
  </g>
  
  <!-- Implementation Priority -->
  <rect x="40" y="1000" width="520" height="100" fill="#164e63" stroke="#0891b2" stroke-width="2" rx="15"/>
  <text x="300" y="1030" text-anchor="middle" fill="white" font-size="16" font-weight="bold">🎯 教育業界実装優先順位</text>
  <text x="60" y="1055" fill="white" font-size="12">
    <tspan x="60" dy="0">Phase 1: LMS統合・成績管理自動化（基盤構築）</tspan>
    <tspan x="60" dy="18">Phase 2: 学習分析・個別化システム（AI活用開始）</tspan>
    <tspan x="60" dy="18">Phase 3: 総合教育プラットフォーム（統合・高度化）</tspan>
  </text>
  
  <!-- Call to Action -->
  <rect x="60" y="1120" width="480" height="60" fill="#1d4ed8" stroke="#3b82f6" stroke-width="2" rx="15"/>
  <text x="300" y="1145" text-anchor="middle" fill="white" font-size="14" font-weight="bold">🎓 教育DX推進の使命</text>
  <text x="300" y="1165" text-anchor="middle" fill="white" font-size="12">
    全ての学習者に最適な教育機会を提供する責任
  </text>
  
  <!-- Footer -->
  <text x="300" y="1190" text-anchor="middle" fill="#6b7280" font-size="10">
    Education Industry Automation Strategy - Customized Framework
  </text>
</svg>