<svg viewBox="0 0 600 1200" xmlns="http://www.w3.org/2000/svg">
  <defs>
    <linearGradient id="headerGrad" x1="0%" y1="0%" x2="100%" y2="0%">
      <stop offset="0%" style="stop-color:#991b1b;stop-opacity:1" />
      <stop offset="100%" style="stop-color:#dc2626;stop-opacity:1" />
    </linearGradient>
    <linearGradient id="roiGrad" x1="0%" y1="0%" x2="100%" y2="0%">
      <stop offset="0%" style="stop-color:#059669;stop-opacity:0.8" />
      <stop offset="100%" style="stop-color:#10b981;stop-opacity:0.9" />
    </linearGradient>
    <linearGradient id="riskGrad" x1="0%" y1="0%" x2="100%" y2="0%">
      <stop offset="0%" style="stop-color:#dc2626;stop-opacity:0.8" />
      <stop offset="100%" style="stop-color:#ef4444;stop-opacity:0.9" />
    </linearGradient>
    <linearGradient id="competitiveGrad" x1="0%" y1="0%" x2="100%" y2="0%">
      <stop offset="0%" style="stop-color:#1d4ed8;stop-opacity:0.8" />
      <stop offset="100%" style="stop-color:#3b82f6;stop-opacity:0.9" />
    </linearGradient>
  </defs>
  
  <!-- Background -->
  <rect width="600" height="1200" fill="#fefefe"/>
  
  <!-- Header -->
  <rect x="0" y="0" width="600" height="90" fill="url(#headerGrad)"/>
  <text x="300" y="35" text-anchor="middle" fill="white" font-size="20" font-weight="bold">
    n8n+AI自動化　経営戦略提案書
  </text>
  <text x="300" y="60" text-anchor="middle" fill="white" font-size="16" opacity="0.9">
    投資対効果と競争優位性の確立
  </text>
  <text x="300" y="78" text-anchor="middle" fill="white" font-size="12" opacity="0.8">
    Executive Decision Support Framework
  </text>
  
  <!-- Executive Summary -->
  <rect x="40" y="110" width="520" height="80" fill="#fef2f2" stroke="#dc2626" stroke-width="2" rx="12"/>
  <text x="60" y="135" fill="#991b1b" font-size="16" font-weight="bold">📊 エグゼクティブサマリー</text>
  <text x="60" y="155" fill="#7f1d1d" font-size="12">
    <tspan x="60" dy="0">• 3年間で投資回収、5年間で競合優位性確立</tspan>
    <tspan x="60" dy="15">• 年間運用コスト30%削減、新規収益機会創出</tspan>
    <tspan x="60" dy="15">• デジタル変革の基盤として持続的成長実現</tspan>
  </text>
  
  <!-- Investment ROI Analysis -->
  <rect x="40" y="210" width="520" height="180" fill="url(#roiGrad)" stroke="#059669" stroke-width="3" rx="15"/>
  <circle cx="80" cy="250" r="25" fill="#fff"/>
  <text x="80" y="257" text-anchor="middle" fill="#059669" font-size="14" font-weight="bold">ROI</text>
  <text x="120" y="245" fill="white" font-size="18" font-weight="bold">投資対効果分析</text>
  <text x="120" y="265" fill="white" font-size="14" opacity="0.9">3年間の投資回収シミュレーション</text>
  
  <!-- ROI Timeline -->
  <rect x="60" y="285" width="480" height="90" fill="#ecfdf5" stroke="#10b981" stroke-width="1" rx="8"/>
  
  <!-- Year 1 -->
  <rect x="80" y="300" width="130" height="60" fill="#065f46" rx="5"/>
  <text x="145" y="318" text-anchor="middle" fill="white" font-size="12" font-weight="bold">Year 1</text>
  <text x="145" y="335" text-anchor="middle" fill="white" font-size="11">初期投資：5,000万円</text>
  <text x="145" y="350" text-anchor="middle" fill="white" font-size="11">効果：1,500万円</text>
  
  <!-- Year 2 -->
  <rect x="235" y="300" width="130" height="60" fill="#059669" rx="5"/>
  <text x="300" y="318" text-anchor="middle" fill="white" font-size="12" font-weight="bold">Year 2</text>
  <text x="300" y="335" text-anchor="middle" fill="white" font-size="11">追加投資：2,000万円</text>
  <text x="300" y="350" text-anchor="middle" fill="white" font-size="11">効果：4,000万円</text>
  
  <!-- Year 3 -->
  <rect x="390" y="300" width="130" height="60" fill="#10b981" rx="5"/>
  <text x="455" y="318" text-anchor="middle" fill="white" font-size="12" font-weight="bold">Year 3</text>
  <text x="455" y="335" text-anchor="middle" fill="white" font-size="11">運用コスト：500万円</text>
  <text x="455" y="350" text-anchor="middle" fill="white" font-size="11">効果：8,000万円</text>
  
  <!-- Risk Management -->
  <rect x="40" y="410" width="520" height="160" fill="url(#riskGrad)" stroke="#dc2626" stroke-width="3" rx="15"/>
  <circle cx="80" cy="450" r="25" fill="#fff"/>
  <text x="80" y="457" text-anchor="middle" fill="#dc2626" font-size="12" font-weight="bold">Risk</text>
  <text x="120" y="445" fill="white" font-size="18" font-weight="bold">リスク管理フレームワーク</text>
  <text x="120" y="465" fill="white" font-size="14" opacity="0.9">戦略的リスクの事前対策</text>
  
  <!-- Risk Matrix -->
  <rect x="60" y="485" width="480" height="70" fill="#fef2f2" stroke="#ef4444" stroke-width="1" rx="8"/>
  
  <g transform="translate(80, 500)">
    <rect x="0" y="0" width="140" height="40" fill="#fee2e2" stroke="#fca5a5" stroke-width="1" rx="4"/>
    <text x="70" y="15" text-anchor="middle" fill="#991b1b" font-size="10" font-weight="bold">技術リスク</text>
    <text x="70" y="30" text-anchor="middle" fill="#7f1d1d" font-size="9">段階的導入で軽減</text>
  </g>
  
  <g transform="translate(240, 500)">
    <rect x="0" y="0" width="140" height="40" fill="#fee2e2" stroke="#fca5a5" stroke-width="1" rx="4"/>
    <text x="70" y="15" text-anchor="middle" fill="#991b1b" font-size="10" font-weight="bold">人材リスク</text>
    <text x="70" y="30" text-anchor="middle" fill="#7f1d1d" font-size="9">教育・研修で対応</text>
  </g>
  
  <g transform="translate(400, 500)">
    <rect x="0" y="0" width="140" height="40" fill="#fee2e2" stroke="#fca5a5" stroke-width="1" rx="4"/>
    <text x="70" y="15" text-anchor="middle" fill="#991b1b" font-size="10" font-weight="bold">競合リスク</text>
    <text x="70" y="30" text-anchor="middle" fill="#7f1d1d" font-size="9">先行者利益で差別化</text>
  </g>
  
  <!-- Competitive Advantage -->
  <rect x="40" y="590" width="520" height="180" fill="url(#competitiveGrad)" stroke="#1d4ed8" stroke-width="3" rx="15"/>
  <circle cx="80" cy="630" r="25" fill="#fff"/>
  <text x="80" y="637" text-anchor="middle" fill="#1d4ed8" font-size="11" font-weight="bold">COMP</text>
  <text x="120" y="625" fill="white" font-size="18" font-weight="bold">競争優位性の確立</text>
  <text x="120" y="645" fill="white" font-size="14" opacity="0.9">市場での差別化要因</text>
  
  <!-- Competitive Factors -->
  <rect x="60" y="665" width="480" height="90" fill="#eff6ff" stroke="#60a5fa" stroke-width="1" rx="8"/>
  
  <g transform="translate(80, 680)">
    <circle cx="0" cy="0" r="6" fill="#1d4ed8"/>
    <text x="15" y="5" fill="#1e3a8a" font-size="12" font-weight="bold">処理速度</text>
    <text x="15" y="20" fill="#1e40af" font-size="10">手作業比80%高速化</text>
  </g>
  
  <g transform="translate(260, 680)">
    <circle cx="0" cy="0" r="6" fill="#1d4ed8"/>
    <text x="15" y="5" fill="#1e3a8a" font-size="12" font-weight="bold">精度向上</text>
    <text x="15" y="20" fill="#1e40af" font-size="10">人的ミス95%削減</text>
  </g>
  
  <g transform="translate(440, 680)">
    <circle cx="0" cy="0" r="6" fill="#1d4ed8"/>
    <text x="15" y="5" fill="#1e3a8a" font-size="12" font-weight="bold">24/7稼働</text>
    <text x="15" y="20" fill="#1e40af" font-size="10">無停止サービス</text>
  </g>
  
  <g transform="translate(80, 720)">
    <circle cx="0" cy="0" r="6" fill="#1d4ed8"/>
    <text x="15" y="5" fill="#1e3a8a" font-size="12" font-weight="bold">スケーラビリティ</text>
    <text x="15" y="20" fill="#1e40af" font-size="10">需要変動に柔軟対応</text>
  </g>
  
  <g transform="translate(260, 720)">
    <circle cx="0" cy="0" r="6" fill="#1d4ed8"/>
    <text x="15" y="5" fill="#1e3a8a" font-size="12" font-weight="bold">データ活用</text>
    <text x="15" y="20" fill="#1e40af" font-size="10">予測分析で先行対応</text>
  </g>
  
  <g transform="translate(440, 720)">
    <circle cx="0" cy="0" r="6" fill="#1d4ed8"/>
    <text x="15" y="5" fill="#1e3a8a" font-size="12" font-weight="bold">顧客体験</text>
    <text x="15" y="20" fill="#1e40af" font-size="10">パーソナライズ実現</text>
  </g>
  
  <!-- Implementation Timeline -->
  <rect x="40" y="790" width="520" height="120" fill="#f8fafc" stroke="#64748b" stroke-width="2" rx="15"/>
  <text x="300" y="820" text-anchor="middle" fill="#334155" font-size="16" font-weight="bold">📅 実装タイムライン</text>
  
  <g transform="translate(60, 840)">
    <rect x="0" y="0" width="100" height="50" fill="#dbeafe" stroke="#3b82f6" stroke-width="1" rx="5"/>
    <text x="50" y="18" text-anchor="middle" fill="#1e40af" font-size="10" font-weight="bold">Phase 1</text>
    <text x="50" y="30" text-anchor="middle" fill="#1e40af" font-size="9">基盤構築</text>
    <text x="50" y="42" text-anchor="middle" fill="#1e40af" font-size="9">3ヶ月</text>
  </g>
  
  <g transform="translate(180, 840)">
    <rect x="0" y="0" width="100" height="50" fill="#dcfce7" stroke="#16a34a" stroke-width="1" rx="5"/>
    <text x="50" y="18" text-anchor="middle" fill="#15803d" font-size="10" font-weight="bold">Phase 2</text>
    <text x="50" y="30" text-anchor="middle" fill="#15803d" font-size="9">パイロット</text>
    <text x="50" y="42" text-anchor="middle" fill="#15803d" font-size="9">6ヶ月</text>
  </g>
  
  <g transform="translate(300, 840)">
    <rect x="0" y="0" width="100" height="50" fill="#fef3c7" stroke="#d97706" stroke-width="1" rx="5"/>
    <text x="50" y="18" text-anchor="middle" fill="#92400e" font-size="10" font-weight="bold">Phase 3</text>
    <text x="50" y="30" text-anchor="middle" fill="#92400e" font-size="9">全社展開</text>
    <text x="50" y="42" text-anchor="middle" fill="#92400e" font-size="9">12ヶ月</text>
  </g>
  
  <g transform="translate(420, 840)">
    <rect x="0" y="0" width="100" height="50" fill="#f3e8ff" stroke="#7c3aed" stroke-width="1" rx="5"/>
    <text x="50" y="18" text-anchor="middle" fill="#5b21b6" font-size="10" font-weight="bold">Phase 4</text>
    <text x="50" y="30" text-anchor="middle" fill="#5b21b6" font-size="9">最適化</text>
    <text x="50" y="42" text-anchor="middle" fill="#5b21b6" font-size="9">継続的</text>
  </g>
  
  <!-- Key Metrics -->
  <rect x="40" y="930" width="520" height="140" fill="#0f172a" stroke="#1e293b" stroke-width="2" rx="15"/>
  <text x="300" y="960" text-anchor="middle" fill="white" font-size="16" font-weight="bold">📈 重要業績指標（KPI）</text>
  
  <g transform="translate(60, 980)">
    <rect x="0" y="0" width="150" height="70" fill="#1e293b" stroke="#475569" stroke-width="1" rx="5"/>
    <text x="75" y="20" text-anchor="middle" fill="#f1f5f9" font-size="12" font-weight="bold">コスト削減</text>
    <text x="75" y="35" text-anchor="middle" fill="#e2e8f0" font-size="18" font-weight="bold">30%</text>
    <text x="75" y="50" text-anchor="middle" fill="#cbd5e1" font-size="10">年間運用コスト</text>
  </g>
  
  <g transform="translate(225, 980)">
    <rect x="0" y="0" width="150" height="70" fill="#1e293b" stroke="#475569" stroke-width="1" rx="5"/>
    <text x="75" y="20" text-anchor="middle" fill="#f1f5f9" font-size="12" font-weight="bold">処理時間</text>
    <text x="75" y="35" text-anchor="middle" fill="#e2e8f0" font-size="18" font-weight="bold">80%</text>
    <text x="75" y="50" text-anchor="middle" fill="#cbd5e1" font-size="10">短縮</text>
  </g>
  
  <g transform="translate(390, 980)">
    <rect x="0" y="0" width="150" height="70" fill="#1e293b" stroke="#475569" stroke-width="1" rx="5"/>
    <text x="75" y="20" text-anchor="middle" fill="#f1f5f9" font-size="12" font-weight="bold">収益向上</text>
    <text x="75" y="35" text-anchor="middle" fill="#e2e8f0" font-size="18" font-weight="bold">25%</text>
    <text x="75" y="50" text-anchor="middle" fill="#cbd5e1" font-size="10">新規事業創出</text>
  </g>
  
  <!-- Call to Action -->
  <rect x="60" y="1090" width="480" height="80" fill="#7c2d12" stroke="#ea580c" stroke-width="2" rx="15"/>
  <text x="300" y="1120" text-anchor="middle" fill="white" font-size="16" font-weight="bold">🚀 意思決定への提言</text>
  <text x="300" y="1140" text-anchor="middle" fill="white" font-size="12">
    競合優位性確立のための戦略投資として
  </text>
  <text x="300" y="1155" text-anchor="middle" fill="white" font-size="12" font-weight="bold">
    今四半期中の意思決定を推奨
  </text>
  
  <!-- Footer -->
  <text x="300" y="1190" text-anchor="middle" fill="#6b7280" font-size="10">
    Executive Strategy Framework 1/6
  </text>
</svg>