<svg viewBox="0 0 600 1200" xmlns="http://www.w3.org/2000/svg">
  <defs>
    <linearGradient id="headerGrad" x1="0%" y1="0%" x2="100%" y2="0%">
      <stop offset="0%" style="stop-color:#1e3a8a;stop-opacity:1" />
      <stop offset="100%" style="stop-color:#3b82f6;stop-opacity:1" />
    </linearGradient>
    <linearGradient id="roiGrad" x1="0%" y1="0%" x2="100%" y2="0%">
      <stop offset="0%" style="stop-color:#059669;stop-opacity:0.8" />
      <stop offset="100%" style="stop-color:#10b981;stop-opacity:0.9" />
    </linearGradient>
    <linearGradient id="complianceGrad" x1="0%" y1="0%" x2="100%" y2="0%">
      <stop offset="0%" style="stop-color:#dc2626;stop-opacity:0.8" />
      <stop offset="100%" style="stop-color:#ef4444;stop-opacity:0.9" />
    </linearGradient>
    <linearGradient id="riskGrad" x1="0%" y1="0%" x2="100%" y2="0%">
      <stop offset="0%" style="stop-color:#7c2d12;stop-opacity:0.8" />
      <stop offset="100%" style="stop-color:#ea580c;stop-opacity:0.9" />
    </linearGradient>
  </defs>
  
  <!-- Background -->
  <rect width="600" height="1200" fill="#fefefe"/>
  
  <!-- Header -->
  <rect x="0" y="0" width="600" height="90" fill="url(#headerGrad)"/>
  <text x="300" y="30" text-anchor="middle" fill="white" font-size="18" font-weight="bold">
    金融業向けn8n+AI自動化戦略提案書
  </text>
  <text x="300" y="50" text-anchor="middle" fill="white" font-size="14" opacity="0.9">
    規制対応・リスク管理強化による競争優位性確立
  </text>
  <text x="300" y="68" text-anchor="middle" fill="white" font-size="11" opacity="0.8">
    Financial Services Digital Transformation Strategy
  </text>
  <text x="300" y="82" text-anchor="middle" fill="white" font-size="10" opacity="0.7">
    🏦 FISC安全対策基準準拠・金融庁規制対応
  </text>
  
  <!-- Executive Summary -->
  <rect x="40" y="110" width="520" height="90" fill="#eff6ff" stroke="#3b82f6" stroke-width="2" rx="12"/>
  <text x="60" y="135" fill="#1e40af" font-size="16" font-weight="bold">📊 金融業界向けエグゼクティブサマリー</text>
  <text x="60" y="155" fill="#1e3a8a" font-size="12">
    <tspan x="60" dy="0">• 審査時間90%短縮、不正検知精度85%向上による顧客体験革新</tspan>
    <tspan x="60" dy="15">• コンプライアンス違反リスク70%削減、監査工数60%効率化</tspan>
    <tspan x="60" dy="15">• 年間運用コスト3.5億円削減、新規収益機会2億円創出</tspan>
  </text>
  
  <!-- Financial ROI Analysis -->
  <rect x="40" y="220" width="520" height="180" fill="url(#roiGrad)" stroke="#059669" stroke-width="3" rx="15"/>
  <circle cx="80" cy="260" r="25" fill="#fff"/>
  <text x="80" y="267" text-anchor="middle" fill="#059669" font-size="12" font-weight="bold">ROI</text>
  <text x="120" y="255" fill="white" font-size="18" font-weight="bold">金融業界ROI分析</text>
  <text x="120" y="275" fill="white" font-size="14" opacity="0.9">18ヶ月での投資回収実現</text>
  
  <!-- ROI Breakdown -->
  <rect x="60" y="295" width="480" height="90" fill="#ecfdf5" stroke="#10b981" stroke-width="1" rx="8"/>
  
  <!-- Year 1 -->
  <rect x="80" y="310" width="130" height="60" fill="#065f46" rx="5"/>
  <text x="145" y="325" text-anchor="middle" fill="white" font-size="11" font-weight="bold">Year 1</text>
  <text x="145" y="340" text-anchor="middle" fill="white" font-size="10">投資：8,000万円</text>
  <text x="145" y="352" text-anchor="middle" fill="white" font-size="10">効果：2,500万円</text>
  <text x="145" y="364" text-anchor="middle" fill="white" font-size="9">審査効率化・不正検知</text>
  
  <!-- Year 2 -->
  <rect x="235" y="310" width="130" height="60" fill="#059669" rx="5"/>
  <text x="300" y="325" text-anchor="middle" fill="white" font-size="11" font-weight="bold">Year 2</text>
  <text x="300" y="340" text-anchor="middle" fill="white" font-size="10">追加：3,000万円</text>
  <text x="300" y="352" text-anchor="middle" fill="white" font-size="10">効果：7,000万円</text>
  <text x="300" y="364" text-anchor="middle" fill="white" font-size="9">全社展開・高度化</text>
  
  <!-- Year 3 -->
  <rect x="390" y="310" width="130" height="60" fill="#10b981" rx="5"/>
  <text x="455" y="325" text-anchor="middle" fill="white" font-size="11" font-weight="bold">Year 3</text>
  <text x="455" y="340" text-anchor="middle" fill="white" font-size="10">運用：1,000万円</text>
  <text x="455" y="352" text-anchor="middle" fill="white" font-size="10">効果：1.2億円</text>
  <text x="455" y="364" text-anchor="middle" fill="white" font-size="9">最適化・新サービス</text>
  
  <!-- Compliance & Risk Management -->
  <rect x="40" y="420" width="520" height="200" fill="url(#complianceGrad)" stroke="#dc2626" stroke-width="3" rx="15"/>
  <circle cx="80" cy="460" r="25" fill="#fff"/>
  <text x="80" y="467" text-anchor="middle" fill="#dc2626" font-size="10" font-weight="bold">規制</text>
  <text x="120" y="455" fill="white" font-size="18" font-weight="bold">規制対応・コンプライアンス強化</text>
  <text x="120" y="475" fill="white" font-size="14" opacity="0.9">金融庁規制・FISC基準完全準拠</text>
  
  <!-- Compliance Areas -->
  <rect x="60" y="495" width="480" height="110" fill="#fef2f2" stroke="#ef4444" stroke-width="1" rx="8"/>
  
  <g transform="translate(80, 510)">
    <rect x="0" y="0" width="100" height="80" fill="#991b1b" rx="5"/>
    <text x="50" y="18" text-anchor="middle" fill="white" font-size="10" font-weight="bold">FISC基準</text>
    <text x="50" y="32" text-anchor="middle" fill="white" font-size="8">安全対策基準</text>
    <text x="50" y="44" text-anchor="middle" fill="white" font-size="8">システム監査</text>
    <text x="50" y="56" text-anchor="middle" fill="white" font-size="8">セキュリティ</text>
    <text x="50" y="68" text-anchor="middle" fill="white" font-size="8">可用性確保</text>
  </g>
  
  <g transform="translate(200, 510)">
    <rect x="0" y="0" width="100" height="80" fill="#dc2626" rx="5"/>
    <text x="50" y="18" text-anchor="middle" fill="white" font-size="10" font-weight="bold">AML対策</text>
    <text x="50" y="32" text-anchor="middle" fill="white" font-size="8">マネロン防止</text>
    <text x="50" y="44" text-anchor="middle" fill="white" font-size="8">疑わしい取引</text>
    <text x="50" y="56" text-anchor="middle" fill="white" font-size="8">自動検知</text>
    <text x="50" y="68" text-anchor="middle" fill="white" font-size="8">報告自動化</text>
  </g>
  
  <g transform="translate(320, 510)">
    <rect x="0" y="0" width="100" height="80" fill="#ef4444" rx="5"/>
    <text x="50" y="18" text-anchor="middle" fill="white" font-size="10" font-weight="bold">個人情報</text>
    <text x="50" y="32" text-anchor="middle" fill="white" font-size="8">GDPR対応</text>
    <text x="50" y="44" text-anchor="middle" fill="white" font-size="8">データ保護</text>
    <text x="50" y="56" text-anchor="middle" fill="white" font-size="8">同意管理</text>
    <text x="50" y="68" text-anchor="middle" fill="white" font-size="8">削除権対応</text>
  </g>
  
  <g transform="translate(440, 510)">
    <rect x="0" y="0" width="100" height="80" fill="#f87171" rx="5"/>
    <text x="50" y="18" text-anchor="middle" fill="white" font-size="10" font-weight="bold">KYC/CDD</text>
    <text x="50" y="32" text-anchor="middle" fill="white" font-size="8">顧客確認</text>
    <text x="50" y="44" text-anchor="middle" fill="white" font-size="8">継続監視</text>
    <text x="50" y="56" text-anchor="middle" fill="white" font-size="8">リスク評価</text>
    <text x="50" y="68" text-anchor="middle" fill="white" font-size="8">更新自動化</text>
  </g>
  
  <!-- Risk Management Framework -->
  <rect x="40" y="640" width="520" height="180" fill="url(#riskGrad)" stroke="#ea580c" stroke-width="3" rx="15"/>
  <circle cx="80" cy="680" r="25" fill="#fff"/>
  <text x="80" y="687" text-anchor="middle" fill="#ea580c" font-size="11" font-weight="bold">Risk</text>
  <text x="120" y="675" fill="white" font-size="18" font-weight="bold">金融リスク管理高度化</text>
  <text x="120" y="695" fill="white" font-size="14" opacity="0.9">3線防御モデル対応</text>
  
  <!-- Risk Categories -->
  <rect x="60" y="715" width="480" height="90" fill="#fed7aa" stroke="#fb923c" stroke-width="1" rx="8"/>
  
  <g transform="translate(80, 730)">
    <circle cx="0" cy="0" r="6" fill="#ea580c"/>
    <text x="15" y="5" fill="#9a3412" font-size="12" font-weight="bold">信用リスク</text>
    <text x="15" y="20" fill="#7c2d12" font-size="10">与信審査自動化・デフォルト予測</text>
  </g>
  
  <g transform="translate(280, 730)">
    <circle cx="0" cy="0" r="6" fill="#ea580c"/>
    <text x="15" y="5" fill="#9a3412" font-size="12" font-weight="bold">操作リスク</text>
    <text x="15" y="20" fill="#7c2d12" font-size="10">プロセス標準化・ヒューマンエラー削減</text>
  </g>
  
  <g transform="translate(80, 770)">
    <circle cx="0" cy="0" r="6" fill="#ea580c"/>
    <text x="15" y="5" fill="#9a3412" font-size="12" font-weight="bold">市場リスク</text>
    <text x="15" y="20" fill="#7c2d12" font-size="10">リアルタイム監視・アラート自動化</text>
  </g>
  
  <g transform="translate(280, 770)">
    <circle cx="0" cy="0" r="6" fill="#ea580c"/>
    <text x="15" y="5" fill="#9a3412" font-size="12" font-weight="bold">流動性リスク</text>
    <text x="15" y="20" fill="#7c2d12" font-size="10">資金繰り予測・最適化</text>
  </g>
  
  <!-- Financial Services KPIs -->
  <rect x="40" y="840" width="520" height="140" fill="#f8fafc" stroke="#64748b" stroke-width="2" rx="15"/>
  <text x="300" y="870" text-anchor="middle" fill="#334155" font-size="16" font-weight="bold">📈 金融業界特化KPI</text>
  
  <g transform="translate(60, 890)">
    <rect x="0" y="0" width="120" height="70" fill="#1e293b" stroke="#475569" stroke-width="1" rx="5"/>
    <text x="60" y="18" text-anchor="middle" fill="#f1f5f9" font-size="11" font-weight="bold">審査時間</text>
    <text x="60" y="35" text-anchor="middle" fill="#e2e8f0" font-size="16" font-weight="bold">90%</text>
    <text x="60" y="50" text-anchor="middle" fill="#cbd5e1" font-size="9">短縮</text>
    <text x="60" y="65" text-anchor="middle" fill="#94a3b8" font-size="8">3日→3時間</text>
  </g>
  
  <g transform="translate(200, 890)">
    <rect x="0" y="0" width="120" height="70" fill="#1e293b" stroke="#475569" stroke-width="1" rx="5"/>
    <text x="60" y="18" text-anchor="middle" fill="#f1f5f9" font-size="11" font-weight="bold">不正検知</text>
    <text x="60" y="35" text-anchor="middle" fill="#e2e8f0" font-size="16" font-weight="bold">85%</text>
    <text x="60" y="50" text-anchor="middle" fill="#cbd5e1" font-size="9">精度向上</text>
    <text x="60" y="65" text-anchor="middle" fill="#94a3b8" font-size="8">誤検知50%削減</text>
  </g>
  
  <g transform="translate(340, 890)">
    <rect x="0" y="0" width="120" height="70" fill="#1e293b" stroke="#475569" stroke-width="1" rx="5"/>
    <text x="60" y="18" text-anchor="middle" fill="#f1f5f9" font-size="11" font-weight="bold">コンプライアンス</text>
    <text x="60" y="35" text-anchor="middle" fill="#e2e8f0" font-size="16" font-weight="bold">70%</text>
    <text x="60" y="50" text-anchor="middle" fill="#cbd5e1" font-size="9">違反削減</text>
    <text x="60" y="65" text-anchor="middle" fill="#94a3b8" font-size="8">監査工数60%減</text>
  </g>
  
  <g transform="translate(480, 890)">
    <rect x="0" y="0" width="80" height="70" fill="#1e293b" stroke="#475569" stroke-width="1" rx="5"/>
    <text x="40" y="18" text-anchor="middle" fill="#f1f5f9" font-size="11" font-weight="bold">顧客満足</text>
    <text x="40" y="35" text-anchor="middle" fill="#e2e8f0" font-size="16" font-weight="bold">NPS</text>
    <text x="40" y="50" text-anchor="middle" fill="#cbd5e1" font-size="9">+25pt</text>
    <text x="40" y="65" text-anchor="middle" fill="#94a3b8" font-size="8">迅速対応</text>
  </g>
  
  <!-- Implementation Priority -->
  <rect x="40" y="1000" width="520" height="100" fill="#164e63" stroke="#0891b2" stroke-width="2" rx="15"/>
  <text x="300" y="1030" text-anchor="middle" fill="white" font-size="16" font-weight="bold">🎯 金融業界実装優先順位</text>
  <text x="60" y="1055" fill="white" font-size="12">
    <tspan x="60" dy="0">Phase 1: コンプライアンス基盤（規制対応・監査証跡）</tspan>
    <tspan x="60" dy="18">Phase 2: リスク管理高度化（不正検知・与信審査）</tspan>
    <tspan x="60" dy="18">Phase 3: 顧客体験向上（デジタル化・パーソナライゼーション）</tspan>
  </text>
  
  <!-- Call to Action -->
  <rect x="60" y="1120" width="480" height="60" fill="#1e3a8a" stroke="#3b82f6" stroke-width="2" rx="15"/>
  <text x="300" y="1145" text-anchor="middle" fill="white" font-size="14" font-weight="bold">🚀 金融DX推進の決断時期</text>
  <text x="300" y="1165" text-anchor="middle" fill="white" font-size="12">
    規制強化・競争激化の今こそ、自動化による差別化を
  </text>
  
  <!-- Footer -->
  <text x="300" y="1190" text-anchor="middle" fill="#6b7280" font-size="10">
    Financial Services Automation Strategy - Customized Framework
  </text>
</svg>