<svg viewBox="0 0 600 1200" xmlns="http://www.w3.org/2000/svg">
  <defs>
    <linearGradient id="headerGrad" x1="0%" y1="0%" x2="100%" y2="0%">
      <stop offset="0%" style="stop-color:#1e40af;stop-opacity:1" />
      <stop offset="100%" style="stop-color:#3b82f6;stop-opacity:1" />
    </linearGradient>
    <linearGradient id="planningGrad" x1="0%" y1="0%" x2="100%" y2="0%">
      <stop offset="0%" style="stop-color:#059669;stop-opacity:0.8" />
      <stop offset="100%" style="stop-color:#10b981;stop-opacity:0.9" />
    </linearGradient>
    <linearGradient id="teamGrad" x1="0%" y1="0%" x2="100%" y2="0%">
      <stop offset="0%" style="stop-color:#7c3aed;stop-opacity:0.8" />
      <stop offset="100%" style="stop-color:#8b5cf6;stop-opacity:0.9" />
    </linearGradient>
    <linearGradient id="processGrad" x1="0%" y1="0%" x2="100%" y2="0%">
      <stop offset="0%" style="stop-color:#dc2626;stop-opacity:0.8" />
      <stop offset="100%" style="stop-color:#ef4444;stop-opacity:0.9" />
    </linearGradient>
  </defs>
  
  <!-- Background -->
  <rect width="600" height="1200" fill="#fefefe"/>
  
  <!-- Header -->
  <rect x="0" y="0" width="600" height="90" fill="url(#headerGrad)"/>
  <text x="300" y="35" text-anchor="middle" fill="white" font-size="20" font-weight="bold">
    自動化推進プロジェクト計画書
  </text>
  <text x="300" y="58" text-anchor="middle" fill="white" font-size="16" opacity="0.9">
    社内推進会議・実行計画フレームワーク
  </text>
  <text x="300" y="75" text-anchor="middle" fill="white" font-size="12" opacity="0.8">
    Project Planning ＆ Execution Guide
  </text>
  
  <!-- Project Overview -->
  <rect x="40" y="110" width="520" height="100" fill="#f0f9ff" stroke="#3b82f6" stroke-width="2" rx="12"/>
  <text x="60" y="135" fill="#1e40af" font-size="16" font-weight="bold">🎯 プロジェクト概要</text>
  <text x="60" y="155" fill="#1e3a8a" font-size="12">
    <tspan x="60" dy="0">プロジェクト名：n8n+AI業務自動化推進プロジェクト</tspan>
    <tspan x="60" dy="18">期間：12ヶ月（2024年4月〜2025年3月）</tspan>
    <tspan x="60" dy="18">予算：5,000万円　対象部門：全社横断</tspan>
    <tspan x="60" dy="18">目標：業務効率30%向上、年間運用コスト2,000万円削減</tspan>
  </text>
  
  <!-- Team Structure -->
  <rect x="40" y="230" width="520" height="200" fill="url(#teamGrad)" stroke="#7c3aed" stroke-width="3" rx="15"/>
  <circle cx="80" cy="270" r="25" fill="#fff"/>
  <text x="80" y="277" text-anchor="middle" fill="#7c3aed" font-size="12" font-weight="bold">TEAM</text>
  <text x="120" y="265" fill="white" font-size="18" font-weight="bold">推進体制・役割分担</text>
  <text x="120" y="285" fill="white" font-size="14" opacity="0.9">プロジェクト組織とステークホルダー</text>
  
  <!-- Organizational Chart -->
  <rect x="60" y="305" width="480" height="110" fill="#f5f3ff" stroke="#a78bfa" stroke-width="1" rx="8"/>
  
  <!-- Executive Sponsor -->
  <rect x="250" y="320" width="100" height="25" fill="#581c87" rx="12"/>
  <text x="300" y="337" text-anchor="middle" fill="white" font-size="10" font-weight="bold">プロジェクトスポンサー</text>
  
  <!-- Project Manager -->
  <rect x="250" y="355" width="100" height="25" fill="#6b21a8" rx="12"/>
  <text x="300" y="372" text-anchor="middle" fill="white" font-size="10" font-weight="bold">プロジェクトマネージャー</text>
  
  <!-- Teams -->
  <rect x="80" y="390" width="80" height="20" fill="#8b5cf6" rx="10"/>
  <text x="120" y="403" text-anchor="middle" fill="white" font-size="9" font-weight="bold">技術チーム</text>
  
  <rect x="180" y="390" width="80" height="20" fill="#8b5cf6" rx="10"/>
  <text x="220" y="403" text-anchor="middle" fill="white" font-size="9" font-weight="bold">業務チーム</text>
  
  <rect x="280" y="390" width="80" height="20" fill="#8b5cf6" rx="10"/>
  <text x="320" y="403" text-anchor="middle" fill="white" font-size="9" font-weight="bold">QAチーム</text>
  
  <rect x="380" y="390" width="80" height="20" fill="#8b5cf6" rx="10"/>
  <text x="420" y="403" text-anchor="middle" fill="white" font-size="9" font-weight="bold">変革管理</text>
  
  <!-- Lines connecting teams -->
  <line x1="300" y1="345" x2="300" y2="355" stroke="#6b21a8" stroke-width="2"/>
  <line x1="120" y1="380" x2="120" y2="390" stroke="#8b5cf6" stroke-width="1"/>
  <line x1="220" y1="380" x2="220" y2="390" stroke="#8b5cf6" stroke-width="1"/>
  <line x1="320" y1="380" x2="320" y2="390" stroke="#8b5cf6" stroke-width="1"/>
  <line x1="420" y1="380" x2="420" y2="390" stroke="#8b5cf6" stroke-width="1"/>
  <line x1="120" y1="380" x2="420" y2="380" stroke="#8b5cf6" stroke-width="1"/>
  <line x1="300" y1="380" x2="300" y2="380" stroke="#8b5cf6" stroke-width="2"/>
  
  <!-- Work Breakdown Structure -->
  <rect x="40" y="450" width="520" height="220" fill="url(#planningGrad)" stroke="#059669" stroke-width="3" rx="15"/>
  <circle cx="80" cy="490" r="25" fill="#fff"/>
  <text x="80" y="497" text-anchor="middle" fill="#059669" font-size="12" font-weight="bold">WBS</text>
  <text x="120" y="485" fill="white" font-size="18" font-weight="bold">作業分解構造</text>
  <text x="120" y="505" fill="white" font-size="14" opacity="0.9">Work Breakdown Structure</text>
  
  <!-- Phase breakdown -->
  <rect x="60" y="525" width="480" height="130" fill="#ecfdf5" stroke="#10b981" stroke-width="1" rx="8"/>
  
  <!-- Phase 1 -->
  <g transform="translate(80, 540)">
    <rect x="0" y="0" width="200" height="25" fill="#065f46" rx="5"/>
    <text x="100" y="17" text-anchor="middle" fill="white" font-size="11" font-weight="bold">Phase 1: 基盤構築・準備（1-3ヶ月）</text>
    <text x="5" y="40" fill="#064e3b" font-size="9">
      <tspan x="5" dy="0">• インフラ環境構築</tspan>
      <tspan x="5" dy="12">• ツール選定・調達</tspan>
      <tspan x="5" dy="12">• 初期チーム編成</tspan>
      <tspan x="5" dy="12">• プロセス現状分析</tspan>
    </text>
  </g>
  
  <!-- Phase 2 -->
  <g transform="translate(300, 540)">
    <rect x="0" y="0" width="200" height="25" fill="#059669" rx="5"/>
    <text x="100" y="17" text-anchor="middle" fill="white" font-size="11" font-weight="bold">Phase 2: パイロット実施（4-6ヶ月）</text>
    <text x="5" y="40" fill="#064e3b" font-size="9">
      <tspan x="5" dy="0">• 対象業務選定</tspan>
      <tspan x="5" dy="12">• 自動化フロー開発</tspan>
      <tspan x="5" dy="12">• テスト・検証</tspan>
      <tspan x="5" dy="12">• 効果測定・改善</tspan>
    </text>
  </g>
  
  <!-- Phase 3 -->
  <g transform="translate(80, 600)">
    <rect x="0" y="0" width="200" height="25" fill="#10b981" rx="5"/>
    <text x="100" y="17" text-anchor="middle" fill="white" font-size="11" font-weight="bold">Phase 3: 全社展開（7-10ヶ月）</text>
    <text x="5" y="40" fill="#064e3b" font-size="9">
      <tspan x="5" dy="0">• 横展開計画策定</tspan>
      <tspan x="5" dy="12">• 部門別カスタマイズ</tspan>
      <tspan x="5" dy="12">• 教育・トレーニング</tspan>
      <tspan x="5" dy="12">• 運用体制確立</tspan>
    </text>
  </g>
  
  <!-- Phase 4 -->
  <g transform="translate(300, 600)">
    <rect x="0" y="0" width="200" height="25" fill="#22c55e" rx="5"/>
    <text x="100" y="17" text-anchor="middle" fill="white" font-size="11" font-weight="bold">Phase 4: 運用・最適化（11-12ヶ月）</text>
    <text x="5" y="40" fill="#064e3b" font-size="9">
      <tspan x="5" dy="0">• 継続的改善</tspan>
      <tspan x="5" dy="12">• パフォーマンス監視</tspan>
      <tspan x="5" dy="12">• ナレッジ蓄積</tspan>
      <tspan x="5" dy="12">• 次期計画策定</tspan>
    </text>
  </g>
  
  <!-- Risk & Issue Management -->
  <rect x="40" y="690" width="520" height="160" fill="url(#processGrad)" stroke="#dc2626" stroke-width="3" rx="15"/>
  <circle cx="80" cy="730" r="25" fill="#fff"/>
  <text x="80" y="737" text-anchor="middle" fill="#dc2626" font-size="11" font-weight="bold">RISK</text>
  <text x="120" y="725" fill="white" font-size="18" font-weight="bold">リスク・課題管理</text>
  <text x="120" y="745" fill="white" font-size="14" opacity="0.9">プロアクティブな問題解決</text>
  
  <!-- Risk Register -->
  <rect x="60" y="765" width="480" height="70" fill="#fef2f2" stroke="#ef4444" stroke-width="1" rx="8"/>
  
  <g transform="translate(80, 780)">
    <rect x="0" y="0" width="120" height="40" fill="#fee2e2" stroke="#fca5a5" stroke-width="1" rx="4"/>
    <text x="60" y="13" text-anchor="middle" fill="#991b1b" font-size="9" font-weight="bold">技術的リスク</text>
    <text x="60" y="25" text-anchor="middle" fill="#7f1d1d" font-size="8">システム統合</text>
    <text x="60" y="35" text-anchor="middle" fill="#7f1d1d" font-size="8">対策：段階導入</text>
  </g>
  
  <g transform="translate(220, 780)">
    <rect x="0" y="0" width="120" height="40" fill="#fee2e2" stroke="#fca5a5" stroke-width="1" rx="4"/>
    <text x="60" y="13" text-anchor="middle" fill="#991b1b" font-size="9" font-weight="bold">組織的リスク</text>
    <text x="60" y="25" text-anchor="middle" fill="#7f1d1d" font-size="8">変革抵抗</text>
    <text x="60" y="35" text-anchor="middle" fill="#7f1d1d" font-size="8">対策：変革管理</text>
  </g>
  
  <g transform="translate(360, 780)">
    <rect x="0" y="0" width="120" height="40" fill="#fee2e2" stroke="#fca5a5" stroke-width="1" rx="4"/>
    <text x="60" y="13" text-anchor="middle" fill="#991b1b" font-size="9" font-weight="bold">スケジュールリスク</text>
    <text x="60" y="25" text-anchor="middle" fill="#7f1d1d" font-size="8">遅延可能性</text>
    <text x="60" y="35" text-anchor="middle" fill="#7f1d1d" font-size="8">対策：バッファ確保</text>
  </g>
  
  <!-- Communication Plan -->
  <rect x="40" y="870" width="520" height="120" fill="#f8fafc" stroke="#64748b" stroke-width="2" rx="15"/>
  <text x="300" y="900" text-anchor="middle" fill="#334155" font-size="16" font-weight="bold">📢 コミュニケーション計画</text>
  
  <!-- Communication Matrix -->
  <rect x="60" y="920" width="480" height="55" fill="#f1f5f9" stroke="#94a3b8" stroke-width="1" rx="8"/>
  
  <g transform="translate(80, 935)">
    <rect x="0" y="0" width="90" height="25" fill="#0f172a" rx="3"/>
    <text x="45" y="17" text-anchor="middle" fill="white" font-size="9" font-weight="bold">週次進捗会議</text>
  </g>
  
  <g transform="translate(185, 935)">
    <rect x="0" y="0" width="90" height="25" fill="#1e293b" rx="3"/>
    <text x="45" y="17" text-anchor="middle" fill="white" font-size="9" font-weight="bold">月次運営委員会</text>
  </g>
  
  <g transform="translate(290, 935)">
    <rect x="0" y="0" width="90" height="25" fill="#334155" rx="3"/>
    <text x="45" y="17" text-anchor="middle" fill="white" font-size="9" font-weight="bold">四半期報告</text>
  </g>
  
  <g transform="translate(395, 935)">
    <rect x="0" y="0" width="90" height="25" fill="#475569" rx="3"/>
    <text x="45" y="17" text-anchor="middle" fill="white" font-size="9" font-weight="bold">緊急時対応</text>
  </g>
  
  <text x="80" y="970" fill="#475569" font-size="10">
    <tspan x="80" dy="0">ステークホルダー：プロジェクトメンバー、部門長、経営陣、エンドユーザー</tspan>
  </text>
  
  <!-- Success Criteria -->
  <rect x="40" y="1010" width="520" height="120" fill="#0f172a" stroke="#1e293b" stroke-width="2" rx="15"/>
  <text x="300" y="1040" text-anchor="middle" fill="white" font-size="16" font-weight="bold">✅ 成功基準・KPI</text>
  
  <g transform="translate(60, 1060)">
    <rect x="0" y="0" width="140" height="50" fill="#1e293b" stroke="#475569" stroke-width="1" rx="5"/>
    <text x="70" y="18" text-anchor="middle" fill="#f1f5f9" font-size="11" font-weight="bold">業務効率</text>
    <text x="70" y="32" text-anchor="middle" fill="#e2e8f0" font-size="16" font-weight="bold">30%向上</text>
    <text x="70" y="45" text-anchor="middle" fill="#cbd5e1" font-size="9">処理時間短縮</text>
  </g>
  
  <g transform="translate(230, 1060)">
    <rect x="0" y="0" width="140" height="50" fill="#1e293b" stroke="#475569" stroke-width="1" rx="5"/>
    <text x="70" y="18" text-anchor="middle" fill="#f1f5f9" font-size="11" font-weight="bold">コスト削減</text>
    <text x="70" y="32" text-anchor="middle" fill="#e2e8f0" font-size="16" font-weight="bold">2000万円</text>
    <text x="70" y="45" text-anchor="middle" fill="#cbd5e1" font-size="9">年間削減額</text>
  </g>
  
  <g transform="translate(400, 1060)">
    <rect x="0" y="0" width="140" height="50" fill="#1e293b" stroke="#475569" stroke-width="1" rx="5"/>
    <text x="70" y="18" text-anchor="middle" fill="#f1f5f9" font-size="11" font-weight="bold">自動化率</text>
    <text x="70" y="32" text-anchor="middle" fill="#e2e8f0" font-size="16" font-weight="bold">80%</text>
    <text x="70" y="45" text-anchor="middle" fill="#cbd5e1" font-size="9">対象業務</text>
  </g>
  
  <!-- Next Actions -->
  <rect x="60" y="1150" width="480" height="35" fill="#7c2d12" stroke="#ea580c" stroke-width="2" rx="15"/>
  <text x="300" y="1175" text-anchor="middle" fill="white" font-size="14" font-weight="bold">
    📋 次回会議までのアクション項目確認
  </text>
  
  <!-- Footer -->
  <text x="300" y="1190" text-anchor="middle" fill="#6b7280" font-size="10">
    Project Planning Framework 2/6
  </text>
</svg>