<svg viewBox="0 0 600 1200" xmlns="http://www.w3.org/2000/svg">
  <defs>
    <linearGradient id="headerGrad" x1="0%" y1="0%" x2="100%" y2="0%">
      <stop offset="0%" style="stop-color:#374151;stop-opacity:1" />
      <stop offset="100%" style="stop-color:#6b7280;stop-opacity:1" />
    </linearGradient>
    <linearGradient id="roiGrad" x1="0%" y1="0%" x2="100%" y2="0%">
      <stop offset="0%" style="stop-color:#1d4ed8;stop-opacity:0.8" />
      <stop offset="100%" style="stop-color:#3b82f6;stop-opacity:0.9" />
    </linearGradient>
    <linearGradient id="smartGrad" x1="0%" y1="0%" x2="100%" y2="0%">
      <stop offset="0%" style="stop-color:#059669;stop-opacity:0.8" />
      <stop offset="100%" style="stop-color:#10b981;stop-opacity:0.9" />
    </linearGradient>
    <linearGradient id="qualityGrad" x1="0%" y1="0%" x2="100%" y2="0%">
      <stop offset="0%" style="stop-color:#dc2626;stop-opacity:0.8" />
      <stop offset="100%" style="stop-color:#ef4444;stop-opacity:0.9" />
    </linearGradient>
  </defs>
  
  <!-- Background -->
  <rect width="600" height="1200" fill="#fefefe"/>
  
  <!-- Header -->
  <rect x="0" y="0" width="600" height="90" fill="url(#headerGrad)"/>
  <text x="300" y="30" text-anchor="middle" fill="white" font-size="18" font-weight="bold">
    製造業向けn8n+AI自動化戦略提案書
  </text>
  <text x="300" y="50" text-anchor="middle" fill="white" font-size="14" opacity="0.9">
    スマートファクトリー実現・生産効率最大化戦略
  </text>
  <text x="300" y="68" text-anchor="middle" fill="white" font-size="11" opacity="0.8">
    Manufacturing Digital Transformation Strategy
  </text>
  <text x="300" y="82" text-anchor="middle" fill="white" font-size="10" opacity="0.7">
    🏭 Industry 4.0・IoT統合による次世代製造業への進化
  </text>
  
  <!-- Executive Summary -->
  <rect x="40" y="110" width="520" height="90" fill="#f1f5f9" stroke="#64748b" stroke-width="2" rx="12"/>
  <text x="60" y="135" fill="#374151" font-size="16" font-weight="bold">📊 製造業界向けエグゼクティブサマリー</text>
  <text x="60" y="155" fill="#1f2937" font-size="12">
    <tspan x="60" dy="0">• 生産効率45%向上、設備稼働率90%以上達成</tspan>
    <tspan x="60" dy="15">• 品質不良率70%削減、予知保全によるダウンタイム80%減</tspan>
    <tspan x="60" dy="15">• 年間製造コスト4.8億円削減、新規生産能力20%拡大</tspan>
  </text>
  
  <!-- Manufacturing ROI Analysis -->
  <rect x="40" y="220" width="520" height="180" fill="url(#roiGrad)" stroke="#3b82f6" stroke-width="3" rx="15"/>
  <circle cx="80" cy="260" r="25" fill="#fff"/>
  <text x="80" y="267" text-anchor="middle" fill="#3b82f6" font-size="12" font-weight="bold">ROI</text>
  <text x="120" y="255" fill="white" font-size="18" font-weight="bold">製造業界ROI分析</text>
  <text x="120" y="275" fill="white" font-size="14" opacity="0.9">14ヶ月での投資回収実現</text>
  
  <!-- ROI Breakdown -->
  <rect x="60" y="295" width="480" height="90" fill="#dbeafe" stroke="#60a5fa" stroke-width="1" rx="8"/>
  
  <!-- Year 1 -->
  <rect x="80" y="310" width="130" height="60" fill="#1e3a8a" rx="5"/>
  <text x="145" y="325" text-anchor="middle" fill="white" font-size="11" font-weight="bold">Year 1</text>
  <text x="145" y="340" text-anchor="middle" fill="white" font-size="10">投資：1.2億円</text>
  <text x="145" y="352" text-anchor="middle" fill="white" font-size="10">効果：6,000万円</text>
  <text x="145" y="364" text-anchor="middle" fill="white" font-size="9">IoT基盤・予知保全</text>
  
  <!-- Year 2 -->
  <rect x="235" y="310" width="130" height="60" fill="#1d4ed8" rx="5"/>
  <text x="300" y="325" text-anchor="middle" fill="white" font-size="11" font-weight="bold">Year 2</text>
  <text x="300" y="340" text-anchor="middle" fill="white" font-size="10">追加：4,000万円</text>
  <text x="300" y="352" text-anchor="middle" fill="white" font-size="10">効果：1.8億円</text>
  <text x="300" y="364" text-anchor="middle" fill="white" font-size="9">品質管理・生産最適化</text>
  
  <!-- Year 3 -->
  <rect x="390" y="310" width="130" height="60" fill="#3b82f6" rx="5"/>
  <text x="455" y="325" text-anchor="middle" fill="white" font-size="11" font-weight="bold">Year 3</text>
  <text x="455" y="340" text-anchor="middle" fill="white" font-size="10">運用：1,500万円</text>
  <text x="455" y="352" text-anchor="middle" fill="white" font-size="10">効果：3.2億円</text>
  <text x="455" y="364" text-anchor="middle" fill="white" font-size="9">自律最適化・AI連携</text>
  
  <!-- Smart Factory Integration -->
  <rect x="40" y="420" width="520" height="200" fill="url(#smartGrad)" stroke="#10b981" stroke-width="3" rx="15"/>
  <circle cx="80" cy="460" r="25" fill="#fff"/>
  <text x="80" y="467" text-anchor="middle" fill="#10b981" font-size="11" font-weight="bold">IoT</text>
  <text x="120" y="455" fill="white" font-size="18" font-weight="bold">スマートファクトリー統合</text>
  <text x="120" y="475" fill="white" font-size="14" opacity="0.9">Industry 4.0対応IoTエコシステム</text>
  
  <!-- IoT Integration Areas -->
  <rect x="60" y="495" width="480" height="110" fill="#ecfdf5" stroke="#10b981" stroke-width="1" rx="8"/>
  
  <g transform="translate(80, 510)">
    <rect x="0" y="0" width="100" height="80" fill="#065f46" rx="5"/>
    <text x="50" y="18" text-anchor="middle" fill="white" font-size="10" font-weight="bold">生産設備</text>
    <text x="50" y="32" text-anchor="middle" fill="white" font-size="8">センサー統合</text>
    <text x="50" y="44" text-anchor="middle" fill="white" font-size="8">稼働監視</text>
    <text x="50" y="56" text-anchor="middle" fill="white" font-size="8">パフォーマンス</text>
    <text x="50" y="68" text-anchor="middle" fill="white" font-size="8">異常検知</text>
  </g>
  
  <g transform="translate(200, 510)">
    <rect x="0" y="0" width="100" height="80" fill="#059669" rx="5"/>
    <text x="50" y="18" text-anchor="middle" fill="white" font-size="10" font-weight="bold">品質管理</text>
    <text x="50" y="32" text-anchor="middle" fill="white" font-size="8">画像検査</text>
    <text x="50" y="44" text-anchor="middle" fill="white" font-size="8">AI判定</text>
    <text x="50" y="56" text-anchor="middle" fill="white" font-size="8">不良品排除</text>
    <text x="50" y="68" text-anchor="middle" fill="white" font-size="8">トレーサビリティ</text>
  </g>
  
  <g transform="translate(320, 510)">
    <rect x="0" y="0" width="100" height="80" fill="#10b981" rx="5"/>
    <text x="50" y="18" text-anchor="middle" fill="white" font-size="10" font-weight="bold">予知保全</text>
    <text x="50" y="32" text-anchor="middle" fill="white" font-size="8">振動分析</text>
    <text x="50" y="44" text-anchor="middle" fill="white" font-size="8">温度監視</text>
    <text x="50" y="56" text-anchor="middle" fill="white" font-size="8">劣化予測</text>
    <text x="50" y="68" text-anchor="middle" fill="white" font-size="8">メンテ最適化</text>
  </g>
  
  <g transform="translate(440, 510)">
    <rect x="0" y="0" width="100" height="80" fill="#22c55e" rx="5"/>
    <text x="50" y="18" text-anchor="middle" fill="white" font-size="10" font-weight="bold">エネルギー</text>
    <text x="50" y="32" text-anchor="middle" fill="white" font-size="8">消費量監視</text>
    <text x="50" y="44" text-anchor="middle" fill="white" font-size="8">効率最適化</text>
    <text x="50" y="56" text-anchor="middle" fill="white" font-size="8">ピーク削減</text>
    <text x="50" y="68" text-anchor="middle" fill="white" font-size="8">CO2削減</text>
  </g>
  
  <!-- Quality & Safety Management -->
  <rect x="40" y="640" width="520" height="180" fill="url(#qualityGrad)" stroke="#ef4444" stroke-width="3" rx="15"/>
  <circle cx="80" cy="680" r="25" fill="#fff"/>
  <text x="80" y="687" text-anchor="middle" fill="#ef4444" font-size="11" font-weight="bold">品質</text>
  <text x="120" y="675" fill="white" font-size="18" font-weight="bold">品質・安全管理強化</text>
  <text x="120" y="695" fill="white" font-size="14" opacity="0.9">ゼロディフェクト・安全第一の実現</text>
  
  <!-- Quality & Safety Areas -->
  <rect x="60" y="715" width="480" height="90" fill="#fef2f2" stroke="#f87171" stroke-width="1" rx="8"/>
  
  <g transform="translate(80, 730)">
    <circle cx="0" cy="0" r="6" fill="#ef4444"/>
    <text x="15" y="5" fill="#991b1b" font-size="12" font-weight="bold">品質保証</text>
    <text x="15" y="20" fill="#7f1d1d" font-size="10">統計的品質管理・SPC自動化</text>
  </g>
  
  <g transform="translate(280, 730)">
    <circle cx="0" cy="0" r="6" fill="#ef4444"/>
    <text x="15" y="5" fill="#991b1b" font-size="12" font-weight="bold">安全管理</text>
    <text x="15" y="20" fill="#7f1d1d" font-size="10">作業環境監視・危険予知</text>
  </g>
  
  <g transform="translate(80, 770)">
    <circle cx="0" cy="0" r="6" fill="#ef4444"/>
    <text x="15" y="5" fill="#991b1b" font-size="12" font-weight="bold">環境規制</text>
    <text x="15" y="20" fill="#7f1d1d" font-size="10">排出物管理・環境負荷削減</text>
  </g>
  
  <g transform="translate(280, 770)">
    <circle cx="0" cy="0" r="6" fill="#ef4444"/>
    <text x="15" y="5" fill="#991b1b" font-size="12" font-weight="bold">コンプライアンス</text>
    <text x="15" y="20" fill="#7f1d1d" font-size="10">ISO認証・監査対応自動化</text>
  </g>
  
  <!-- Manufacturing KPIs -->
  <rect x="40" y="840" width="520" height="140" fill="#f8fafc" stroke="#64748b" stroke-width="2" rx="15"/>
  <text x="300" y="870" text-anchor="middle" fill="#334155" font-size="16" font-weight="bold">📈 製造業界特化KPI</text>
  
  <g transform="translate(60, 890)">
    <rect x="0" y="0" width="120" height="70" fill="#1e293b" stroke="#475569" stroke-width="1" rx="5"/>
    <text x="60" y="18" text-anchor="middle" fill="#f1f5f9" font-size="11" font-weight="bold">生産効率</text>
    <text x="60" y="35" text-anchor="middle" fill="#e2e8f0" font-size="16" font-weight="bold">45%</text>
    <text x="60" y="50" text-anchor="middle" fill="#cbd5e1" font-size="9">向上</text>
    <text x="60" y="65" text-anchor="middle" fill="#94a3b8" font-size="8">OEE 85%達成</text>
  </g>
  
  <g transform="translate(200, 890)">
    <rect x="0" y="0" width="120" height="70" fill="#1e293b" stroke="#475569" stroke-width="1" rx="5"/>
    <text x="60" y="18" text-anchor="middle" fill="#f1f5f9" font-size="11" font-weight="bold">品質不良率</text>
    <text x="60" y="35" text-anchor="middle" fill="#e2e8f0" font-size="16" font-weight="bold">70%</text>
    <text x="60" y="50" text-anchor="middle" fill="#cbd5e1" font-size="9">削減</text>
    <text x="60" y="65" text-anchor="middle" fill="#94a3b8" font-size="8">0.1%以下</text>
  </g>
  
  <g transform="translate(340, 890)">
    <rect x="0" y="0" width="120" height="70" fill="#1e293b" stroke="#475569" stroke-width="1" rx="5"/>
    <text x="60" y="18" text-anchor="middle" fill="#f1f5f9" font-size="11" font-weight="bold">設備稼働率</text>
    <text x="60" y="35" text-anchor="middle" fill="#e2e8f0" font-size="16" font-weight="bold">90%</text>
    <text x="60" y="50" text-anchor="middle" fill="#cbd5e1" font-size="9">達成</text>
    <text x="60" y="65" text-anchor="middle" fill="#94a3b8" font-size="8">ダウンタイム最小</text>
  </g>
  
  <g transform="translate(480, 890)">
    <rect x="0" y="0" width="80" height="70" fill="#1e293b" stroke="#475569" stroke-width="1" rx="5"/>
    <text x="40" y="18" text-anchor="middle" fill="#f1f5f9" font-size="11" font-weight="bold">安全性</text>
    <text x="40" y="35" text-anchor="middle" fill="#e2e8f0" font-size="16" font-weight="bold">0件</text>
    <text x="40" y="50" text-anchor="middle" fill="#cbd5e1" font-size="9">重大事故</text>
    <text x="40" y="65" text-anchor="middle" fill="#94a3b8" font-size="8">予防重視</text>
  </g>
  
  <!-- Implementation Priority -->
  <rect x="40" y="1000" width="520" height="100" fill="#164e63" stroke="#0891b2" stroke-width="2" rx="15"/>
  <text x="300" y="1030" text-anchor="middle" fill="white" font-size="16" font-weight="bold">🎯 製造業界実装優先順位</text>
  <text x="60" y="1055" fill="white" font-size="12">
    <tspan x="60" dy="0">Phase 1: IoT基盤構築（センサー統合・データ収集）</tspan>
    <tspan x="60" dy="18">Phase 2: 予知保全・品質管理（AI予測・自動検査）</tspan>
    <tspan x="60" dy="18">Phase 3: 生産最適化（スケジューリング・エネルギー管理）</tspan>
  </text>
  
  <!-- Call to Action -->
  <rect x="60" y="1120" width="480" height="60" fill="#374151" stroke="#6b7280" stroke-width="2" rx="15"/>
  <text x="300" y="1145" text-anchor="middle" fill="white" font-size="14" font-weight="bold">⚡ 製造DX推進の重要性</text>
  <text x="300" y="1165" text-anchor="middle" fill="white" font-size="12">
    グローバル競争・人手不足の今こそ、スマート化による生産革新を
  </text>
  
  <!-- Footer -->
  <text x="300" y="1190" text-anchor="middle" fill="#6b7280" font-size="10">
    Manufacturing Industry Automation Strategy - Customized Framework
  </text>
</svg>